<svg width="840" height="840" viewBox="0 0 840 840" fill="none" xmlns="http://www.w3.org/2000/svg">
<path d="M539.703 536.615C573.837 536.842 617.364 532.27 659.024 513.419C669.665 508.608 735.367 478.886 727.607 448.961C724.875 438.419 715.333 436.755 711.432 422.724C706.809 406.098 717.247 397.796 724.481 377.074C728.796 364.712 741.43 328.531 719.755 308.497C706.802 296.527 682.182 290.864 663.444 295.239C635.957 301.655 626.506 328.408 611.3 373.956C597.822 414.331 601.284 424.241 591.07 453.145C583.499 474.596 569.225 504.131 539.703 536.615Z" fill="url(#paint0_linear)"/>
<g style="mix-blend-mode:soft-light" opacity="0.5">
<g style="mix-blend-mode:soft-light" opacity="0.5">
<path d="M453.962 555.251C434.194 555.251 413.964 552.516 393.435 547.05L393.849 545.491C431.207 555.437 467.549 556.279 501.881 547.997C547.617 536.964 587.282 509.567 619.789 466.567C653.647 421.775 671.253 371.28 680.058 336.806C686.153 312.953 684.976 286.542 676.562 258.299L678.106 257.846C686.606 286.374 687.788 313.073 681.62 337.211C672.779 371.83 655.096 422.54 621.075 467.547C588.34 510.851 548.364 538.449 502.259 549.571C486.442 553.371 470.229 555.278 453.962 555.251V555.251Z" fill="white"/>
</g>
<g style="mix-blend-mode:soft-light" opacity="0.5">
<path d="M656.977 405.688L656.524 405.125C656.429 405.007 646.841 393.059 639.09 374.821C631.933 357.969 624.919 332.131 632.142 304.737L633.702 305.146C620.905 353.676 653.119 398.024 657.328 403.537C729.584 356.497 728.876 302.746 726.917 287.359C726.863 286.938 726.836 286.68 726.836 286.576H727.644H728.45C728.45 286.664 728.479 286.859 728.516 287.153C730.504 302.821 731.26 357.643 657.584 405.292L656.977 405.688Z" fill="white"/>
</g>
<g style="mix-blend-mode:soft-light" opacity="0.5">
<path d="M648.619 469.211C639.331 469.184 630.056 468.478 620.87 467.101L620.444 467.038L620.259 466.648C620.062 466.232 600.547 424.327 604.829 367.361L609.142 309.946L610.749 310.066L606.436 367.472C602.408 421.078 619.589 461.207 621.538 465.559C645.955 469.096 681.124 469.678 710.884 452.678C728.77 442.456 736.317 430.54 736.391 430.422L737.75 431.271C737.442 431.769 729.975 443.597 711.764 454.026C698.768 461.484 678.151 469.211 648.619 469.211Z" fill="white"/>
</g>
</g>
<path d="M502.945 536.339C476.749 520.175 440.907 492.559 418.121 447.833C388.234 389.178 407.09 352.626 382.82 247.961C367.476 181.782 356.103 135.752 317.497 117.749C287.246 103.644 243.896 108.439 221.737 131.733C203.321 151.1 197.379 185.525 198.222 209.063C198.901 228.247 204.133 241.214 195.425 253.166C186.527 265.381 173.576 262.128 164.859 271.605C147.185 290.83 169.304 338.088 172.879 345.725C212.644 430.685 307.243 474.19 348.736 492.668C383.044 507.949 435.183 527.002 502.945 536.339Z" fill="url(#paint1_linear)"/>
<g style="mix-blend-mode:soft-light" opacity="0.5">
<g style="mix-blend-mode:soft-light" opacity="0.5">
<path d="M531.462 547.605C490.155 540.84 453.618 530.171 422.864 515.907C377.355 494.796 345.883 466.309 329.33 431.228C316.386 403.795 312.638 371.968 307.893 331.671C303.96 298.268 304.186 274.259 304.383 253.075C304.642 225.611 304.836 203.921 295.648 174.485C286.304 144.577 270.045 116.257 247.329 90.3102L248.54 89.2483C271.408 115.365 287.776 143.882 297.186 174.002C306.469 203.683 306.256 225.487 305.995 253.089C305.798 274.225 305.574 298.18 309.494 331.483C314.407 373.202 317.955 403.345 330.777 430.54C347.162 465.26 378.369 493.483 423.532 514.436C454.152 528.639 490.551 539.257 531.713 546L531.462 547.605Z" fill="white"/>
</g>
<g style="mix-blend-mode:soft-light" opacity="0.5">
<path d="M306.082 307.967L305.651 307.164C275.841 251.321 236.47 220.603 208.691 204.663C178.614 187.408 155.321 183.301 155.094 183.26L155.364 181.675C155.59 181.716 179.169 185.873 209.491 203.271C237.317 219.235 276.695 249.928 306.623 305.588C310.347 302.785 327.534 289.15 342.693 265.49C358.393 240.989 375.07 200.409 365.364 146.21L366.949 145.927C376.75 200.669 359.887 241.666 344.013 266.418C326.805 293.237 307.01 307.309 306.813 307.449L306.082 307.967Z" fill="white"/>
</g>
<g style="mix-blend-mode:soft-light" opacity="0.5">
<path d="M319.082 397.678L318.498 397.628C280.368 394.39 233.502 352.873 200.903 318.609C165.648 281.558 139.014 244.798 138.75 244.424L140.056 243.48C140.321 243.847 166.9 280.537 202.082 317.518C234.322 351.394 280.535 392.409 318.054 395.973C320.051 391.343 334.687 358.026 355.494 327.224C377.909 294.05 441.165 271.3 441.802 271.073L442.343 272.592C441.711 272.819 378.946 295.404 356.83 328.137C334.612 361.03 319.472 396.795 319.309 397.153L319.082 397.678Z" fill="white"/>
</g>
<g style="mix-blend-mode:soft-light" opacity="0.5">
<path d="M389.151 510.752C369.233 510.716 349.34 509.354 329.604 506.677C287.642 500.989 226.424 486.433 173.087 449.378L70.0913 377.83L71.0106 376.506L174.007 448.064C227.067 484.927 288.004 499.418 329.78 505.083C369.441 510.462 399.806 509.122 406.961 508.687C394.476 494.038 387.663 477.51 386.717 459.48C385.942 444.684 389.105 428.878 396.12 412.501C408.034 384.677 427.227 364.544 427.419 364.343L428.581 365.461C428.391 365.658 409.376 385.612 397.585 413.176C390.677 429.319 387.564 444.874 388.329 459.419C389.282 477.564 396.319 494.187 409.243 508.832L410.307 510.037L408.706 510.17C408.557 510.181 401.35 510.752 389.151 510.752Z" fill="white"/>
</g>
</g>
<path d="M494.378 532.754C455.871 562.415 402.589 594.695 339.097 609.208C322.895 612.912 222.799 635.796 205.829 595.181C199.85 580.874 209.226 570.772 201.577 551.504C192.503 528.672 173.518 528.244 147.464 510.976C131.923 500.674 86.4428 470.529 93.7696 429.149C98.1485 404.422 121.186 376.802 146.201 365.624C182.893 349.232 216.645 371.432 273.106 409.979C323.158 444.151 327.765 458.37 364.236 482.348C391.311 500.151 432.928 521.343 494.378 532.754Z" fill="url(#paint2_linear)"/>
<g style="mix-blend-mode:soft-light" opacity="0.5">
<g style="mix-blend-mode:soft-light" opacity="0.5">
<path d="M436.607 537.802C406.426 537.802 375.134 533.257 342.731 524.167C265.458 502.449 201.779 460.2 161.968 428.584C134.237 406.562 112.621 375.317 97.7183 335.715L99.2262 335.149C114.025 374.47 135.471 405.482 162.971 427.322C202.666 458.846 266.151 500.969 343.168 522.614C417.129 543.401 485.778 540.301 547.207 513.396C593.319 493.202 633.849 460.913 667.675 417.426L668.948 418.415C634.956 462.113 594.213 494.572 547.854 514.868C512.966 530.153 475.764 537.802 436.607 537.802Z" fill="white"/>
</g>
<g style="mix-blend-mode:soft-light" opacity="0.5">
<path d="M222.958 485.98C117.011 485.98 76.2113 430.413 65.7713 412.322C65.5449 411.933 65.4045 411.679 65.332 411.58L66.6113 410.597C66.8134 410.893 66.9994 411.2 67.1683 411.516C78.24 430.703 123.883 492.498 246.752 483.471C246.786 479.493 246.616 459.63 240.455 435.322C234.131 410.362 220.014 375.467 188.685 350.977L189.677 349.707C221.375 374.488 235.639 409.753 242.031 434.973C248.941 462.272 248.357 484.028 248.352 484.245L248.33 484.97L247.605 485.024C239.029 485.675 230.813 485.993 222.958 485.98Z" fill="white"/>
</g>
<g style="mix-blend-mode:soft-light" opacity="0.5">
<path d="M210.874 588.086C191.328 588.086 179.373 583.608 179.221 583.558L179.799 582.052C179.986 582.122 198.847 589.164 228.009 585.347C254.876 581.83 296.221 568.119 340.78 522.779C339.494 517.15 324.602 456.161 273.324 398.224L218.984 336.84L220.193 335.771L274.533 397.155C328.381 457.995 342.319 522.224 342.457 522.865L342.546 523.288L342.242 523.596C297.204 569.559 255.322 583.42 228.129 586.961C222.408 587.708 216.644 588.084 210.874 588.086V588.086Z" fill="white"/>
</g>
</g>
<path d="M485.18 567.548C482.254 563.57 464.646 540.378 436.777 539.418C413.456 538.61 395.605 553.814 391.473 557.337C374.832 571.517 376.756 582.829 363.314 587.42C347.352 592.872 335.895 579.908 325.573 587.393C318.452 592.555 316.365 604.189 319.254 612.299C324.321 626.538 345.916 633.324 362.293 629.921C384.857 625.229 385.367 603.722 410.986 596.814C425.873 592.798 430.211 598.852 446.046 594.967C464.436 590.463 477.199 577.748 485.18 567.548Z" fill="url(#paint3_linear)"/>
<g style="mix-blend-mode:soft-light" opacity="0.5">
<g style="mix-blend-mode:soft-light" opacity="0.5">
<path d="M357.013 608.862C343.17 608.862 326.316 601.956 306.686 588.211L307.138 587.552C333.434 605.962 354.643 612.016 370.172 605.549C379.96 601.474 384.81 593.776 389.943 585.65C395.719 576.494 401.692 567.027 415.247 562.508C425.662 559.032 437.744 560.696 461.796 564.011C473.828 565.669 485.749 568.051 497.495 571.146L497.286 571.924C485.574 568.839 473.686 566.463 461.687 564.81C437.757 561.512 425.748 559.856 415.498 563.273C402.217 567.7 396.321 577.044 390.62 586.08C385.412 594.328 380.501 602.119 370.469 606.292C366.372 608.007 361.887 608.863 357.013 608.862Z" fill="white"/>
</g>
<g style="mix-blend-mode:soft-light" opacity="0.5">
<path d="M329.47 632.196L329.286 631.411C357.853 624.781 365.608 608.712 366.296 607.15C363.733 598.32 356.25 590.864 350.409 586.148C346.557 583.036 342.437 580.271 338.098 577.886L338.472 577.17C338.698 577.293 362.171 589.696 367.111 607.057L367.15 607.189L367.1 607.315C367.03 607.503 359.773 625.164 329.47 632.196Z" fill="white"/>
</g>
<g style="mix-blend-mode:soft-light" opacity="0.5">
<path d="M394.482 622.954C391.609 614.318 394.204 601.54 402.194 584.968C405.906 577.354 410.133 570.002 414.846 562.963C401.94 552.451 370.392 577.413 370.072 577.669L369.567 577.039C369.651 576.974 377.82 570.473 387.493 565.47C400.595 558.677 410.066 557.717 415.65 562.587L415.922 562.814L415.713 563.11C415.441 563.502 388.543 602.545 395.247 622.689L394.482 622.954Z" fill="white"/>
</g>
<g style="mix-blend-mode:soft-light" opacity="0.5">
<path d="M422.438 610.907C414.837 581.744 453.932 565.651 458.601 563.846C445.191 540.72 411.697 536.343 411.357 536.3L411.457 535.501C411.801 535.544 446.098 540.029 459.536 563.86L459.763 564.276L459.31 564.437C458.857 564.593 415.354 580.569 423.206 610.703L422.438 610.907Z" fill="white"/>
</g>
</g>
<path d="M319.415 250.909C323.87 253.173 329.467 251.094 331.917 246.269C334.367 241.444 332.741 235.7 328.295 233.438C328.068 233.321 327.828 233.212 327.59 233.128C328.411 230.494 329.037 227.803 329.463 225.077C329.717 225.077 329.975 225.077 330.235 225.05C335.318 224.597 339.35 219.926 339.244 214.617C339.138 209.307 334.942 205.372 329.848 205.825C329.583 205.847 329.323 205.89 329.062 205.936C328.536 203.318 327.809 200.744 326.886 198.238C327.113 198.102 327.353 197.961 327.579 197.801C331.929 194.755 333.319 188.744 330.686 184.37C328.052 179.995 322.392 178.925 318.043 181.972C317.816 182.128 317.61 182.296 317.402 182.468C315.674 180.557 313.787 178.796 311.762 177.204C311.907 176.977 312.047 176.731 312.174 176.481C314.621 171.657 317.834 166.386 313.333 164.194C302.945 159.125 298.489 163.465 296.04 168.29C295.913 168.539 295.813 168.792 295.698 169.046C293.217 168.353 290.682 167.869 288.12 167.599C288.135 167.332 288.147 167.063 288.142 166.791C288.036 161.481 289.612 158.608 284.52 158.511C273.394 158.285 269.64 163.123 269.746 168.432C269.746 168.709 269.775 168.98 269.803 169.25C267.238 169.983 264.733 170.913 262.311 172.03C262.195 171.792 262.084 171.557 261.937 171.328C259.304 166.958 253.643 165.894 249.294 168.933C244.944 171.971 243.554 177.989 246.187 182.364C246.323 182.59 246.471 182.796 246.622 183.002C244.665 184.96 242.854 187.059 241.204 189.283C240.978 189.147 240.772 189.016 240.541 188.898C236.085 186.634 230.488 188.712 228.038 193.537C225.588 198.362 227.214 204.106 231.661 206.368C231.887 206.486 232.127 206.595 232.363 206.678C231.544 209.313 230.919 212.004 230.492 214.73C230.239 214.73 229.981 214.73 229.72 214.757C224.637 215.21 220.605 219.881 220.709 225.19C220.813 230.5 225.024 234.435 230.107 233.982C230.372 233.959 230.633 233.916 230.893 233.871C231.419 236.489 232.146 239.063 233.069 241.569C232.843 241.705 232.603 241.845 232.376 242.006C228.027 245.051 226.637 251.063 229.27 255.437C231.903 259.811 240.622 261.838 244.972 258.792C245.198 258.636 242.345 257.511 242.554 257.339C244.281 259.25 246.168 261.011 248.194 262.603C248.049 262.829 247.908 263.076 247.781 263.325C245.332 268.15 246.96 273.894 251.404 276.156C255.849 278.418 261.457 276.342 263.907 271.517C264.034 271.268 264.133 271.014 264.249 270.761C266.73 271.454 269.265 271.938 271.827 272.207C271.811 272.475 271.8 272.744 271.804 273.016C271.91 278.325 276.106 282.26 281.2 281.807C286.295 281.355 290.318 276.684 290.212 271.374C290.212 271.098 290.182 270.826 290.155 270.557C292.72 269.824 295.225 268.894 297.647 267.776C297.763 268.014 297.874 268.25 298.021 268.476C300.654 272.848 306.314 273.91 310.664 270.874C315.013 267.838 316.403 261.817 313.77 257.443C313.634 257.216 313.487 257.01 313.335 256.804C315.285 254.852 317.089 252.758 318.733 250.542C318.966 250.66 319.184 250.791 319.415 250.909ZM263.875 251.613C247.698 243.396 241.795 222.543 250.689 205.028C259.582 187.512 279.896 179.971 296.08 188.185C312.264 196.399 318.16 217.254 309.267 234.77C300.373 252.285 280.052 259.827 263.875 251.613Z" fill="#D8DEE8"/>
<path d="M330.227 225.057C335.31 224.604 339.342 219.933 339.236 214.623C339.129 209.314 334.934 205.379 329.839 205.832C329.574 205.854 329.314 205.897 329.054 205.943C328.528 203.324 327.8 200.751 326.878 198.244C327.104 198.109 327.344 197.968 327.571 197.808C331.92 194.762 337.307 187.392 334.232 183.317C328.408 175.578 322.381 178.927 318.034 181.974C317.808 182.13 317.602 182.298 317.393 182.47C315.665 180.559 313.779 178.798 311.753 177.206C311.898 176.98 312.039 176.733 312.165 176.484C312.797 175.262 313.173 173.924 313.272 172.552C313.37 171.18 313.187 169.802 312.736 168.503C308.534 175.899 304.396 183.326 300.322 190.784C313.227 200.239 317.334 218.875 309.267 234.763C302.432 248.226 288.845 255.786 275.577 254.839C274.986 256.374 274.404 257.916 273.765 259.438C272.047 263.563 270.093 267.602 268.137 271.637C269.365 271.869 270.6 272.051 271.841 272.18C271.825 272.45 271.814 272.719 271.818 272.991C271.925 278.3 275.149 282.811 284.359 282.322C289.456 282.052 290.332 276.661 290.226 271.349C290.226 271.073 290.196 270.802 290.169 270.532C292.734 269.799 295.239 268.869 297.661 267.752C297.777 267.989 297.888 268.225 298.035 268.451C300.668 272.823 309.808 274.68 314.153 271.621C318.498 268.562 316.417 261.779 313.784 257.407C313.648 257.18 313.501 256.974 313.35 256.768C315.299 254.816 317.104 252.722 318.747 250.506C318.974 250.641 319.18 250.773 319.411 250.891C323.867 253.155 329.464 251.076 331.913 246.251C334.363 241.426 332.737 235.682 328.291 233.42C328.064 233.303 327.824 233.194 327.587 233.11C328.407 230.476 329.033 227.785 329.459 225.059C329.708 225.077 329.966 225.072 330.227 225.057Z" fill="#D8DEE8"/>
<path d="M324.208 251.454C328.661 253.719 334.261 251.64 336.708 246.815C339.156 241.99 337.532 236.246 333.085 233.984C332.859 233.867 332.619 233.758 332.384 233.674C333.203 231.04 333.828 228.349 334.254 225.623C334.51 225.623 334.765 225.623 335.026 225.596C340.109 225.143 344.144 220.472 344.037 215.162C343.931 209.853 339.735 205.916 334.641 206.368C334.374 206.393 334.113 206.434 333.855 206.482C333.329 203.863 332.6 201.29 331.677 198.783C331.904 198.648 332.144 198.505 332.372 198.346C336.719 195.299 338.112 189.29 335.476 184.916C332.841 180.541 327.183 179.482 322.833 182.518C322.607 182.674 322.401 182.842 322.195 183.014C320.466 181.104 318.579 179.343 316.555 177.749C316.698 177.523 316.838 177.276 316.965 177.025C319.415 172.202 317.789 166.456 313.342 164.194C308.895 161.932 303.289 164.011 300.839 168.833C300.713 169.085 300.613 169.338 300.498 169.592C298.016 168.898 295.482 168.414 292.919 168.145C292.935 167.878 292.949 167.608 292.942 167.337C292.836 162.027 288.64 158.09 283.546 158.543C278.452 158.995 274.428 163.669 274.535 168.976C274.535 169.254 274.564 169.526 274.591 169.796C272.027 170.527 269.522 171.457 267.101 172.576C266.984 172.349 266.875 172.103 266.728 171.874C264.092 167.504 258.432 166.44 254.083 169.476C249.733 172.512 248.345 178.533 250.978 182.907C251.112 183.134 251.261 183.342 251.411 183.548C249.462 185.5 247.658 187.592 246.015 189.808C245.789 189.675 245.581 189.541 245.35 189.426C240.894 187.162 235.297 189.24 232.847 194.063C230.397 198.885 232.025 204.632 236.481 206.894C236.707 207.011 236.948 207.12 237.183 207.204C236.364 209.838 235.739 212.529 235.313 215.255C235.057 215.255 234.801 215.255 234.541 215.285C229.458 215.737 225.423 220.408 225.529 225.718C225.636 231.027 229.831 234.962 234.926 234.51C235.191 234.485 235.453 234.444 235.711 234.399C236.238 237.017 236.965 239.59 237.887 242.097C237.661 242.235 237.421 242.375 237.194 242.534C232.845 245.581 231.455 251.59 234.088 255.967C236.721 260.344 242.384 261.401 246.733 258.365C246.96 258.208 247.166 258.039 247.372 257.869C249.102 259.778 250.988 261.538 253.012 263.133C252.869 263.359 252.729 263.606 252.602 263.855C250.152 268.68 251.778 274.424 256.224 276.686C260.671 278.948 266.277 276.872 268.727 272.047C268.854 271.798 268.953 271.544 269.067 271.288C271.548 271.984 274.084 272.468 276.647 272.735C276.629 273.005 276.618 273.272 276.622 273.546C276.729 278.853 280.938 282.79 286.021 282.338C291.104 281.885 295.136 277.214 295.03 271.904C295.03 271.626 295.003 271.356 294.975 271.085C297.54 270.353 300.044 269.424 302.465 268.307C302.581 268.533 302.692 268.777 302.839 269.006C305.474 273.378 311.135 274.451 315.482 271.404C319.829 268.356 321.221 262.347 318.588 257.973C318.452 257.747 318.305 257.541 318.156 257.332C320.105 255.38 321.908 253.288 323.551 251.072C323.757 251.205 323.977 251.337 324.208 251.454ZM268.668 252.159C252.491 243.947 246.586 223.089 255.48 205.574C264.373 188.058 284.687 180.516 300.871 188.728C317.055 196.94 322.953 217.8 314.06 235.316C305.166 252.831 284.843 260.377 268.668 252.159V252.159Z" fill="white"/>
<path d="M614.849 188.726C610.481 174.584 603.657 167.746 598.458 164.131C587.321 156.385 572.225 155.5 572.646 152.534C572.827 151.245 575.816 150.369 576.708 150.106C581.078 148.82 583.524 151.028 585.955 149.574C587.767 148.492 588.26 146.158 588.62 144.331C590.432 135.082 585.102 123.697 582.265 115.349C582.068 114.768 581.622 113.425 582.059 113.108C582.532 112.764 583.788 113.787 584.212 114.131C588.729 117.811 594.367 134.23 594.36 134.23C594.353 134.23 594.36 132.349 592.669 126.985C589.709 117.652 586.494 113.323 586.782 105.928C586.836 104.481 586.897 103.182 587.398 103.032C589.931 102.283 599.035 132.444 600.72 131.887C601.141 131.746 600.906 129.736 600.788 128.735C599.692 119.38 594.543 116.586 594.98 109.026C595.051 107.835 595.15 106.1 595.8 105.917C597.985 105.299 603.784 122.93 606.668 130.992C612.614 147.733 617.395 164.864 620.978 182.264C618.932 184.414 616.889 186.568 614.849 188.726Z" fill="url(#paint4_linear)"/>
<path d="M428.69 165.89C420.634 163.374 418.474 154.051 417.621 150.365C415.601 141.654 416.385 126.614 425.509 122.443C432.838 119.092 441.03 124.827 442.037 125.558C452.364 133.01 450.426 147.294 450.188 148.78C449.679 152.126 448.628 159.029 442.558 163.32C442.146 163.623 435.657 168.066 428.69 165.89Z" fill="url(#paint5_linear)"/>
<g style="mix-blend-mode:multiply" opacity="0.3">
<path style="mix-blend-mode:multiply" opacity="0.3" d="M439.363 144.453C434.024 139.161 426.475 141.478 423.287 136.662C421.702 134.257 421.29 130.2 424.498 122.977C416.327 127.764 415.668 141.996 417.615 150.374C418.469 154.06 420.629 163.383 428.685 165.899C435.652 168.075 442.141 163.635 442.569 163.329C442.836 163.141 443.089 162.946 443.336 162.747C444.226 155.812 443.723 148.771 439.363 144.453Z" fill="url(#paint6_linear)"/>
</g>
<path d="M422.321 351.283C422.321 351.283 389.903 250.46 390.014 212.529C390.125 174.598 423.209 159.849 437.899 156.351C452.588 152.853 483.727 156.702 493.314 199.401C502.9 242.101 495.981 337.811 495.981 337.811L422.321 351.283Z" fill="url(#paint7_linear)"/>
<g style="mix-blend-mode:soft-light" opacity="0.3">
<path d="M449.234 249.772C472.589 246.915 477.763 224.866 499.236 222.315C501.561 222.04 503.909 222.017 506.239 222.247C505.915 218.065 505.515 214.041 505.023 210.247C502.419 209.922 499.785 209.914 497.178 210.222C475.698 212.758 470.531 234.808 447.17 237.659C428.119 239.984 419.619 226.78 403.501 232.526C399.348 234.007 395.839 236.337 392.882 239.033C393.561 242.866 394.329 246.854 395.184 250.94C398.2 248.185 401.726 246.047 405.563 244.646C421.689 238.897 430.188 252.102 449.234 249.772Z" fill="white"/>
</g>
<path style="mix-blend-mode:multiply" opacity="0.8" d="M451.23 288.426C433.76 290.425 425.772 277.119 411.044 282.575C408.366 283.583 405.872 285.023 403.66 286.839C412.49 320.674 422.321 351.283 422.321 351.283L495.98 337.811C495.98 337.811 498.697 300.306 498.367 261.783C497.825 261.812 497.3 261.855 496.793 261.913C477.1 264.077 472.649 285.974 451.23 288.426Z" fill="url(#paint8_linear)"/>
<path style="mix-blend-mode:multiply" opacity="0.3" d="M490.388 224.228C470.69 226.395 466.239 248.291 444.813 250.718C427.341 252.706 419.35 239.398 404.618 244.832C400.925 246.19 397.8 248.377 395.167 250.924C397.551 262.485 400.54 274.854 403.66 286.818C405.871 285.003 408.366 283.562 411.043 282.555C425.76 277.098 433.76 290.404 451.23 288.405C472.649 285.953 477.1 264.056 496.794 261.881C497.301 261.844 492.295 224.02 490.388 224.228Z" fill="url(#paint9_linear)"/>
<path d="M323.44 422.733C309.228 404.216 328.784 362.298 350.25 338.681C375.224 311.205 407.196 303.641 427.483 299.126C494.626 284.183 516.165 314.558 550.057 297.136C602.628 270.109 591.092 176.178 614.848 173.583C634.354 171.451 665.087 232.304 656.601 292.653C650.017 339.48 605.481 385.542 560.517 406.05C527.898 420.928 532.852 416.977 458.578 421.27C372.482 426.242 337.451 440.986 323.44 422.733Z" fill="url(#paint10_linear)"/>
<path d="M404.162 304.954C417.944 299.989 440.474 298.866 440.239 249.623C440.239 249.623 468.781 247.811 469.863 248.176C470.886 248.513 462.303 297.36 502.191 297.03C504.908 297.007 505.616 300.817 503.438 302.543C496.225 308.258 479.957 317.108 455.866 317.389C440.619 317.565 423.224 320.984 404.083 310.907C401.461 309.528 401.271 305.996 404.162 304.954Z" fill="url(#paint11_linear)"/>
<path d="M501.829 398.063C493.751 398.165 496.554 329.912 472.395 229.71C467.382 208.925 462.469 191.98 458.989 180.596L484.755 177.299C499.676 205.974 521.898 259.331 517.667 328.47C515.667 360.978 507.77 397.988 501.829 398.063Z" fill="url(#paint12_linear)"/>
<path d="M501.829 398.063C493.751 398.165 496.554 329.912 472.395 229.71C467.382 208.925 462.469 191.98 458.989 180.596L484.755 177.299C499.676 205.974 521.898 259.331 517.667 328.47C515.667 360.978 507.77 397.988 501.829 398.063Z" fill="url(#paint13_linear)"/>
<path d="M412.135 220.684C413.226 227.101 418.277 274.718 454.583 266.851C487.742 259.662 479.013 225.996 475.117 208.992C475.117 208.992 470.971 193.852 459.053 191.866C459.053 191.866 470.894 198.475 473.996 217.619C473.996 217.619 469.694 207.98 445.302 212.889C420.911 217.798 417.664 229.786 417.664 229.786C417.664 229.786 410.231 212.305 420.99 200.074C420.981 200.074 412.656 204.679 412.135 220.684Z" fill="url(#paint14_linear)"/>
<g style="mix-blend-mode:multiply" opacity="0.3">
<path style="mix-blend-mode:multiply" opacity="0.3" d="M648.606 216.032C653.155 242.423 648.276 259.467 641.164 270.942C625.147 296.78 596.83 295.988 561.961 336.77C542.444 359.602 541.181 371.71 529.047 389.228C523.478 397.268 516.203 405.607 506.48 413.651C532.688 414.383 537.755 416.432 560.515 406.051C605.479 385.542 650.015 339.485 656.599 292.653C660.452 265.232 656.214 237.706 648.606 216.032Z" fill="url(#paint15_linear)"/>
</g>
<path d="M657.04 418.608L199.592 402.829C197.301 402.751 195.018 403.135 192.879 403.958C190.74 404.781 188.788 406.026 187.14 407.619C185.493 409.212 184.182 411.12 183.287 413.23C182.392 415.34 181.931 417.609 181.931 419.901V714.727C181.931 717.078 182.417 719.403 183.357 721.558C184.298 723.713 185.673 725.65 187.396 727.249C189.12 728.848 191.155 730.074 193.374 730.85C195.593 731.626 197.949 731.936 200.293 731.76L657.735 697.44C662.033 697.118 666.049 695.184 668.98 692.025C671.911 688.866 673.539 684.716 673.539 680.407V435.682C673.54 431.252 671.819 426.995 668.741 423.81C665.663 420.624 661.468 418.759 657.04 418.608V418.608Z" fill="url(#paint16_linear)"/>
<path d="M664.904 418.608L207.455 402.829C205.165 402.751 202.882 403.135 200.743 403.958C198.604 404.781 196.652 406.026 195.004 407.619C193.356 409.212 192.046 411.12 191.151 413.23C190.256 415.34 189.795 417.609 189.795 419.901V714.727C189.795 717.078 190.281 719.403 191.221 721.558C192.162 723.713 193.537 725.65 195.26 727.249C196.984 728.848 199.019 730.074 201.238 730.85C203.457 731.626 205.813 731.936 208.157 731.76L665.593 697.44C669.89 697.118 673.906 695.184 676.837 692.025C679.768 688.866 681.397 684.716 681.397 680.407V435.682C681.397 431.253 679.677 426.998 676.601 423.812C673.524 420.627 669.33 418.761 664.904 418.608Z" fill="url(#paint17_linear)"/>
<path d="M485.307 582.566L676.982 424.25C675.451 422.545 673.592 421.167 671.516 420.197C669.44 419.228 667.19 418.687 664.9 418.608L207.45 402.829C203.277 402.679 199.195 404.07 195.982 406.737L452.228 583.968C457.142 587.368 463.032 589.072 469.003 588.819C474.974 588.566 480.698 586.37 485.307 582.566V582.566Z" fill="url(#paint18_linear)"/>
<path d="M485.307 582.566C480.699 586.371 474.976 588.567 469.006 588.822C463.036 589.076 457.147 587.375 452.232 583.977L195.987 406.737C194.045 408.337 192.482 410.347 191.409 412.623C190.336 414.899 189.781 417.384 189.783 419.9V714.727C189.783 717.078 190.269 719.403 191.209 721.558C192.15 723.713 193.525 725.65 195.248 727.249C196.972 728.848 199.007 730.074 201.226 730.85C203.446 731.626 205.801 731.936 208.145 731.76L665.592 697.44C669.889 697.118 673.906 695.183 676.836 692.025C679.767 688.866 681.396 684.716 681.396 680.407V435.681C681.397 431.455 679.825 427.38 676.985 424.25L485.307 582.566Z" fill="url(#paint19_linear)"/>
<path style="mix-blend-mode:multiply" opacity="0.37" d="M676.981 424.25L485.307 582.566C480.699 586.371 474.976 588.567 469.006 588.822C463.036 589.076 457.147 587.375 452.232 583.977L195.987 406.737C194.045 408.337 192.482 410.347 191.409 412.623C190.336 414.899 189.781 417.384 189.783 419.9V463.372C199.041 459.482 206.875 458.735 213.244 459.267C230.848 460.737 235.053 471.72 268.761 487.592C300.281 502.426 303.586 496.103 317.481 506.853C344.248 527.563 332.542 551.457 356.003 573.7C380.434 596.853 401.513 578.882 436.447 600.892C473.352 624.152 461.545 651.609 491.963 667.741C534.582 690.346 578.101 647.241 614.327 670.005C625.281 676.888 632.284 687.736 636.799 699.591L665.592 697.431C669.889 697.109 673.906 695.174 676.836 692.016C679.767 688.857 681.396 684.707 681.396 680.398V435.681C681.396 431.455 679.822 427.379 676.981 424.25V424.25Z" fill="url(#paint20_linear)"/>
<path d="M333.561 329.565C335.666 330.634 338.315 329.651 339.466 327.374C340.616 325.096 339.855 322.381 337.752 321.312C337.641 321.258 337.525 321.211 337.419 321.165C337.806 319.922 338.102 318.651 338.302 317.364C338.422 317.364 338.544 317.364 338.666 317.35C341.069 317.124 342.968 314.93 342.923 312.421C342.878 309.912 340.885 308.054 338.485 308.269C338.358 308.269 338.236 308.3 338.114 308.321C337.864 307.089 337.52 305.878 337.086 304.698C337.197 304.635 337.312 304.567 337.414 304.492C339.468 303.052 340.131 300.213 338.879 298.152C337.627 296.092 334.962 295.58 332.909 297.02C332.802 297.095 332.703 297.174 332.605 297.247C331.789 296.343 330.899 295.51 329.943 294.756C330.008 294.645 330.076 294.53 330.135 294.414C331.292 292.134 332.805 289.646 330.683 288.611C325.777 286.216 323.664 288.265 322.514 290.545C322.455 290.663 322.403 290.771 322.353 290.903C321.181 290.576 319.984 290.349 318.774 290.223C318.774 290.097 318.787 289.97 318.774 289.841C318.722 287.334 319.466 285.976 317.057 285.931C311.8 285.826 310.027 288.109 310.077 290.617C310.077 290.746 310.091 290.875 310.104 291.002C308.893 291.349 307.71 291.788 306.565 292.315C306.511 292.205 306.454 292.089 306.389 291.985C305.146 289.92 302.472 289.413 300.416 290.853C298.36 292.293 297.699 295.132 298.951 297.192C299.015 297.299 299.082 297.396 299.155 297.496C298.234 298.418 297.382 299.406 296.605 300.453C296.504 300.389 296.399 300.326 296.291 300.272C294.187 299.203 291.536 300.183 290.386 302.461C289.236 304.739 289.996 307.454 292.102 308.522C292.211 308.579 292.328 308.624 292.433 308.669C292.047 309.914 291.752 311.186 291.55 312.473C291.43 312.473 291.307 312.473 291.185 312.487C288.785 312.7 286.883 314.907 286.929 317.414C286.974 319.92 288.966 321.781 291.369 321.568C291.493 321.568 291.615 321.537 291.74 321.514C291.988 322.746 292.331 323.958 292.768 325.137C292.657 325.202 292.541 325.268 292.439 325.345C290.386 326.783 289.722 329.624 290.972 331.685C292.222 333.745 296.336 334.707 298.39 333.269C298.494 333.195 297.149 332.663 297.258 332.59C298.074 333.494 298.966 334.327 299.922 335.081C299.855 335.192 299.789 335.307 299.728 335.423C298.571 337.7 299.338 340.404 301.444 341.484C303.55 342.564 306.199 341.57 307.349 339.292C307.41 339.174 307.46 339.066 307.51 338.934C308.682 339.261 309.881 339.488 311.091 339.614C311.091 339.74 311.078 339.867 311.091 339.996C311.141 342.505 313.129 344.364 315.529 344.149C317.929 343.934 319.831 341.728 319.786 339.222C319.786 339.091 319.772 338.962 319.759 338.835C320.971 338.49 322.154 338.051 323.297 337.522C323.35 337.635 323.409 337.745 323.474 337.852C324.719 339.917 327.393 340.424 329.447 338.984C331.5 337.544 332.164 334.703 330.914 332.645C330.851 332.54 330.78 332.441 330.71 332.343C331.63 331.421 332.482 330.433 333.257 329.386C333.348 329.448 333.452 329.509 333.561 329.565ZM307.326 329.898C299.685 326.017 296.895 316.166 301.095 307.893C305.295 299.62 314.907 296.056 322.539 299.937C330.171 303.817 332.968 313.666 328.768 321.942C324.568 330.217 314.968 333.777 307.326 329.898V329.898Z" fill="#D8DEE8"/>
<path d="M338.667 317.35C341.07 317.124 342.969 314.93 342.924 312.421C342.879 309.912 340.886 308.053 338.486 308.269C338.359 308.269 338.237 308.3 338.115 308.321C337.865 307.089 337.521 305.878 337.087 304.698C337.198 304.635 337.313 304.567 337.415 304.492C339.469 303.052 342.009 299.574 340.56 297.65C337.809 293.993 334.963 295.576 332.91 297.013C332.803 297.088 332.704 297.167 332.606 297.24C331.79 296.336 330.9 295.503 329.944 294.749C330.009 294.638 330.077 294.523 330.136 294.407C330.435 293.83 330.613 293.198 330.659 292.55C330.706 291.902 330.619 291.251 330.406 290.638C328.422 294.129 326.467 297.637 324.541 301.161C330.639 305.629 332.579 314.432 328.769 321.937C325.54 328.297 319.121 331.868 312.854 331.42C312.575 332.144 312.299 332.873 312 333.593C311.187 335.54 310.266 337.442 309.34 339.355C309.922 339.464 310.507 339.549 311.092 339.611C311.092 339.738 311.079 339.865 311.092 339.994C311.142 342.503 312.664 344.633 317.015 344.402C319.424 344.273 319.836 341.726 319.787 339.22C319.787 339.088 319.773 338.959 319.759 338.832C320.971 338.487 322.154 338.048 323.298 337.519C323.353 337.632 323.412 337.746 323.475 337.85C324.72 339.915 329.036 340.793 331.089 339.353C333.143 337.913 332.158 334.703 330.915 332.638C330.852 332.534 330.781 332.434 330.711 332.337C331.631 331.414 332.482 330.426 333.258 329.38C333.36 329.443 333.464 329.504 333.573 329.561C335.679 330.629 338.328 329.647 339.478 327.369C340.628 325.091 339.867 322.377 337.764 321.308C337.653 321.254 337.538 321.206 337.431 321.161C337.819 319.917 338.114 318.646 338.314 317.359C338.423 317.364 338.545 317.361 338.667 317.35Z" fill="#D8DEE8"/>
<path d="M335.825 329.823C337.929 330.89 340.58 329.91 341.73 327.632C342.88 325.354 342.119 322.651 340.014 321.571C339.905 321.514 339.787 321.469 339.683 321.424C340.07 320.179 340.365 318.907 340.566 317.62C340.686 317.62 340.809 317.62 340.931 317.606C343.333 317.393 345.233 315.186 345.187 312.679C345.142 310.173 343.15 308.312 340.75 308.527C340.623 308.527 340.501 308.556 340.378 308.579C340.128 307.347 339.785 306.136 339.35 304.956C339.459 304.891 339.577 304.825 339.676 304.75C341.732 303.31 342.393 300.469 341.144 298.411C339.894 296.353 337.227 295.839 335.171 297.279C335.067 297.353 334.967 297.433 334.87 297.505C334.054 296.601 333.162 295.767 332.205 295.015C332.273 294.904 332.341 294.788 332.4 294.673C333.557 292.395 332.789 289.692 330.683 288.614C328.578 287.536 325.929 288.526 324.778 290.803C324.717 290.923 324.667 291.043 324.618 291.163C323.446 290.836 322.248 290.609 321.038 290.484C321.038 290.357 321.052 290.23 321.038 290.101C320.988 287.593 319 285.734 316.6 285.949C314.2 286.164 312.298 288.369 312.344 290.876C312.344 291.007 312.357 291.136 312.371 291.263C311.159 291.61 309.976 292.049 308.832 292.576C308.778 292.465 308.721 292.35 308.655 292.246C307.41 290.181 304.738 289.673 302.683 291.113C300.627 292.553 299.966 295.393 301.215 297.453C301.279 297.557 301.349 297.657 301.422 297.754C300.501 298.676 299.649 299.665 298.872 300.711C298.77 300.648 298.666 300.587 298.557 300.53C296.454 299.461 293.803 300.444 292.652 302.722C291.502 304.999 292.263 307.703 294.369 308.783C294.477 308.839 294.595 308.885 294.699 308.93C294.312 310.174 294.017 311.444 293.816 312.731C293.696 312.731 293.574 312.731 293.452 312.745C291.049 312.971 289.15 315.165 289.195 317.674C289.24 320.183 291.233 322.042 293.633 321.827C293.76 321.815 293.882 321.797 294.004 321.774C294.254 323.006 294.598 324.218 295.032 325.397C294.923 325.463 294.806 325.528 294.706 325.603C292.65 327.043 291.989 329.882 293.239 331.943C294.489 334.003 297.156 334.515 299.209 333.075C299.316 333 299.415 332.921 299.513 332.848C300.33 333.752 301.221 334.585 302.178 335.339C302.11 335.45 302.042 335.565 301.983 335.679C300.826 337.959 301.594 340.671 303.699 341.74C305.805 342.808 308.454 341.828 309.604 339.548C309.663 339.43 309.715 339.31 309.765 339.19C310.937 339.517 312.134 339.745 313.344 339.869C313.344 339.996 313.331 340.123 313.344 340.252C313.397 342.759 315.382 344.62 317.784 344.405C320.187 344.189 322.086 341.984 322.041 339.478C322.041 339.346 322.027 339.217 322.014 339.091C323.225 338.744 324.408 338.305 325.553 337.777C325.607 337.888 325.664 338.004 325.729 338.108C326.972 340.173 329.646 340.68 331.702 339.24C333.758 337.8 334.419 334.961 333.169 332.9C333.104 332.794 333.036 332.697 332.963 332.599C333.884 331.676 334.736 330.687 335.513 329.64C335.612 329.706 335.716 329.767 335.825 329.823ZM309.591 330.156C301.949 326.276 299.16 316.424 303.36 308.149C307.56 299.873 317.171 296.314 324.801 300.193C332.431 304.071 335.232 313.925 331.032 322.198C326.832 330.471 317.23 334.035 309.591 330.156V330.156Z" fill="white"/>
<path style="mix-blend-mode:multiply" opacity="0.3" d="M236.526 463.214V729.631L268.141 758.395L327.439 710.916L236.526 463.214Z" fill="url(#paint21_linear)"/>
<path d="M391.039 468.602L418.342 743.214C418.75 747.303 415.933 750.878 412.075 751.159L279.038 762.303C270.928 762.589 266.551 758.228 266.11 753.892L236.526 463.213C236.073 458.846 240.133 454.981 248.327 455.149L383.178 460.834C387.095 460.981 390.629 464.477 391.039 468.602Z" fill="url(#paint22_linear)"/>
<path d="M397.087 468.252L424.508 744.278C424.916 748.39 422.088 751.976 418.214 752.266L280.289 762.378C275.987 762.693 272.086 759.394 271.644 755.044L241.927 462.824C241.474 458.434 244.705 454.979 249.082 455.144L389.194 460.442C393.129 460.592 396.679 464.106 397.087 468.252Z" fill="#26264F"/>
<path d="M394.188 483.482L419.614 739.318C419.995 743.167 417.35 746.511 413.728 746.769L283.992 755.991C279.989 756.274 276.366 753.195 275.954 749.144L248.531 479.233C248.114 475.157 251.11 471.913 255.174 472.042L386.805 476.23C390.482 476.348 393.799 479.611 394.188 483.482Z" fill="url(#paint23_linear)"/>
<path d="M324.41 466.562C324.557 468.038 323.504 469.195 322.08 469.148C320.656 469.1 319.363 467.86 319.207 466.381C319.05 464.903 320.112 463.744 321.541 463.796C322.97 463.848 324.26 465.084 324.41 466.562Z" fill="white"/>
<g opacity="0.66">
<path opacity="0.66" d="M312.126 540.876C296.622 548.946 289.983 566.887 297.299 580.952C304.614 595.017 323.11 599.874 338.626 591.804L312.126 540.876Z" fill="#F4F7FA"/>
<path opacity="0.66" d="M338.626 591.799L312.136 540.876C315.603 539.073 319.645 538.72 323.373 539.896C327.101 541.072 330.208 543.681 332.013 547.148L344.896 571.924C346.7 575.391 347.053 579.433 345.877 583.16C344.701 586.887 342.093 589.995 338.626 591.799V591.799Z" fill="#F4F7FA"/>
<path opacity="0.66" d="M349.718 614.744C334.21 622.814 327.572 640.755 334.89 654.82C342.207 668.885 360.701 673.741 376.215 665.672L349.718 614.744Z" fill="#F4F7FA"/>
<path opacity="0.66" d="M376.215 665.661L349.725 614.738C353.192 612.934 357.234 612.581 360.962 613.757C364.689 614.933 367.797 617.542 369.602 621.009L382.494 645.784C383.387 647.501 383.933 649.378 384.1 651.306C384.268 653.234 384.054 655.177 383.471 657.023C382.888 658.868 381.947 660.581 380.702 662.063C379.457 663.546 377.933 664.768 376.215 665.661V665.661Z" fill="#F4F7FA"/>
<path opacity="0.66" d="M353.78 650.108L337.652 658.499C317.044 638.434 303.118 611.672 295.874 578.212L312.002 569.821L353.78 650.108Z" fill="#F4F7FA"/>
</g>
<g style="mix-blend-mode:soft-light" opacity="0.3">
<g style="mix-blend-mode:soft-light" opacity="0.3">
<path d="M311.64 601.297C297.931 560.794 321.791 540.392 308.278 502.875C300.929 482.466 286.212 467.26 270.014 455.937L249.073 455.144C244.696 454.979 241.472 458.434 241.918 462.824L271.635 755.044C272.088 759.394 275.973 762.693 280.28 762.378L399.358 753.65C398.985 723.138 391.234 701.422 382.603 685.986C358.932 643.564 325.834 643.245 311.64 601.297Z" fill="#F4F7FA"/>
</g>
</g>
<defs>
<linearGradient id="paint0_linear" x1="708.901" y1="296.126" x2="627.188" y2="515.459" gradientUnits="userSpaceOnUse">
<stop stop-color="#E38DDD"/>
<stop offset="1" stop-color="#9571F6"/>
</linearGradient>
<linearGradient id="paint1_linear" x1="158.094" y1="323.085" x2="502.945" y2="323.085" gradientUnits="userSpaceOnUse">
<stop stop-color="#FF9085"/>
<stop offset="1" stop-color="#FB6FBB"/>
</linearGradient>
<linearGradient id="paint2_linear" x1="568962" y1="466320" x2="517511" y2="680519" gradientUnits="userSpaceOnUse">
<stop stop-color="#E38DDD"/>
<stop offset="1" stop-color="#9571F6"/>
</linearGradient>
<linearGradient id="paint3_linear" x1="235124" y1="236728" x2="358570" y2="236728" gradientUnits="userSpaceOnUse">
<stop stop-color="#FF9085"/>
<stop offset="1" stop-color="#FB6FBB"/>
</linearGradient>
<linearGradient id="paint4_linear" x1="595.567" y1="197.744" x2="608.028" y2="-106.66" gradientUnits="userSpaceOnUse">
<stop stop-color="#FFC444"/>
<stop offset="1" stop-color="#F36F56"/>
</linearGradient>
<linearGradient id="paint5_linear" x1="450.553" y1="112.376" x2="437.821" y2="135.321" gradientUnits="userSpaceOnUse">
<stop stop-color="#444B8C"/>
<stop offset="1" stop-color="#3E4177"/>
</linearGradient>
<linearGradient id="paint6_linear" x1="53638.3" y1="-1591.69" x2="50559.6" y2="804.576" gradientUnits="userSpaceOnUse">
<stop stop-color="#444B8C"/>
<stop offset="1" stop-color="#3E4177"/>
</linearGradient>
<linearGradient id="paint7_linear" x1="220145" y1="22355.6" x2="164963" y2="103324" gradientUnits="userSpaceOnUse">
<stop stop-color="#444B8C"/>
<stop offset="1" stop-color="#3E4177"/>
</linearGradient>
<linearGradient id="paint8_linear" x1="199055" y1="10095.1" x2="181427" y2="59587.9" gradientUnits="userSpaceOnUse">
<stop stop-color="#444B8C"/>
<stop offset="1" stop-color="#3E4177"/>
</linearGradient>
<linearGradient id="paint9_linear" x1="207126" y1="6414.16" x2="198002" y2="44626.2" gradientUnits="userSpaceOnUse">
<stop stop-color="#444B8C"/>
<stop offset="1" stop-color="#3E4177"/>
</linearGradient>
<linearGradient id="paint10_linear" x1="477.443" y1="596.606" x2="486.074" y2="393.136" gradientUnits="userSpaceOnUse">
<stop stop-color="#311944"/>
<stop offset="1" stop-color="#893976"/>
</linearGradient>
<linearGradient id="paint11_linear" x1="208094" y1="125080" x2="206384" y2="70881.6" gradientUnits="userSpaceOnUse">
<stop stop-color="#FFC444"/>
<stop offset="1" stop-color="#F36F56"/>
</linearGradient>
<linearGradient id="paint12_linear" x1="130999" y1="38702.8" x2="68686.9" y2="83025.6" gradientUnits="userSpaceOnUse">
<stop stop-color="#444B8C"/>
<stop offset="1" stop-color="#3E4177"/>
</linearGradient>
<linearGradient id="paint13_linear" x1="130999" y1="38702.8" x2="68686.9" y2="83025.6" gradientUnits="userSpaceOnUse">
<stop stop-color="#444B8C"/>
<stop offset="1" stop-color="#3E4177"/>
</linearGradient>
<linearGradient id="paint14_linear" x1="131887" y1="29993.1" x2="121176" y2="-58699.3" gradientUnits="userSpaceOnUse">
<stop stop-color="#FFC444"/>
<stop offset="1" stop-color="#F36F56"/>
</linearGradient>
<linearGradient id="paint15_linear" x1="571.528" y1="469.021" x2="606.013" y2="74.0196" gradientUnits="userSpaceOnUse">
<stop stop-color="#E38DDD"/>
<stop offset="0.71" stop-color="#AC79EF"/>
<stop offset="1" stop-color="#9571F6"/>
</linearGradient>
<linearGradient id="paint16_linear" x1="614530" y1="822122" x2="180144" y2="891022" gradientUnits="userSpaceOnUse">
<stop stop-color="#FFC444"/>
<stop offset="1" stop-color="#F36F56"/>
</linearGradient>
<linearGradient id="paint17_linear" x1="849677" y1="693490" x2="1.03077e+06" y2="1.2928e+06" gradientUnits="userSpaceOnUse">
<stop stop-color="#FFC444"/>
<stop offset="1" stop-color="#F36F56"/>
</linearGradient>
<linearGradient id="paint18_linear" x1="916677" y1="433007" x2="921967" y2="134161" gradientUnits="userSpaceOnUse">
<stop stop-color="#FFC444"/>
<stop offset="1" stop-color="#F36F56"/>
</linearGradient>
<linearGradient id="paint19_linear" x1="849687" y1="685244" x2="1.02684e+06" y2="1.2786e+06" gradientUnits="userSpaceOnUse">
<stop stop-color="#FFC444"/>
<stop offset="1" stop-color="#F36F56"/>
</linearGradient>
<linearGradient id="paint20_linear" x1="953535" y1="589439" x2="1.09956e+06" y2="1.13236e+06" gradientUnits="userSpaceOnUse">
<stop stop-color="#FFC444"/>
<stop offset="1" stop-color="#F36F56"/>
</linearGradient>
<linearGradient id="paint21_linear" x1="236.526" y1="610.804" x2="327.439" y2="610.804" gradientUnits="userSpaceOnUse">
<stop stop-color="#AA80F9"/>
<stop offset="1" stop-color="#6165D7"/>
</linearGradient>
<linearGradient id="paint22_linear" x1="233.598" y1="608.139" x2="421.017" y2="611.869" gradientUnits="userSpaceOnUse">
<stop stop-color="#444B8C"/>
<stop offset="1" stop-color="#26264F"/>
</linearGradient>
<linearGradient id="paint23_linear" x1="323810" y1="768677" x2="128385" y2="1.39002e+06" gradientUnits="userSpaceOnUse">
<stop stop-color="#E38DDD"/>
<stop offset="1" stop-color="#9571F6"/>
</linearGradient>
</defs>
</svg>
