<svg width="64" height="64" viewBox="0 0 64 64" fill="none" xmlns="http://www.w3.org/2000/svg">
<circle cx="32" cy="32" r="32" fill="#720F2B"/>
<path d="M40.0838 12H23.9162C17.3456 12 12 17.3456 12 23.9162V40.0838C12 46.6544 17.3456 52 23.9162 52H40.0838C46.6544 52 52 46.6544 52 40.0838V23.9162C51.9999 17.3456 46.6543 12 40.0838 12ZM47.976 40.0838C47.976 44.4425 44.4425 47.976 40.0838 47.976H23.9162C19.5575 47.976 16.024 44.4425 16.024 40.0838V23.9162C16.024 19.5574 19.5575 16.024 23.9162 16.024H40.0838C44.4425 16.024 47.976 19.5574 47.976 23.9162V40.0838Z" fill="url(#paint0_linear)"/>
<path d="M32.0002 21.6545C26.2957 21.6545 21.6548 26.2955 21.6548 31.9999C21.6548 37.7043 26.2957 42.3453 32.0002 42.3453C37.7047 42.3453 42.3456 37.7044 42.3456 31.9999C42.3456 26.2954 37.7047 21.6545 32.0002 21.6545ZM32.0002 38.3214C28.509 38.3214 25.6788 35.4912 25.6788 32C25.6788 28.5087 28.509 25.6785 32.0002 25.6785C35.4915 25.6785 38.3216 28.5087 38.3216 32C38.3216 35.4911 35.4914 38.3214 32.0002 38.3214Z" fill="url(#paint1_linear)"/>
<path d="M42.3652 24.2112C43.7343 24.2112 44.8442 23.1014 44.8442 21.7323C44.8442 20.3632 43.7343 19.2533 42.3652 19.2533C40.9961 19.2533 39.8862 20.3632 39.8862 21.7323C39.8862 23.1014 40.9961 24.2112 42.3652 24.2112Z" fill="url(#paint2_linear)"/>
<defs>
<linearGradient id="paint0_linear" x1="32" y1="51.8836" x2="32" y2="12.3107" gradientUnits="userSpaceOnUse">
<stop stop-color="#E09B3D"/>
<stop offset="0.3" stop-color="#C74C4D"/>
<stop offset="0.6" stop-color="#C21975"/>
<stop offset="1" stop-color="#7024C4"/>
</linearGradient>
<linearGradient id="paint1_linear" x1="32.0002" y1="51.8835" x2="32.0002" y2="12.3107" gradientUnits="userSpaceOnUse">
<stop stop-color="#E09B3D"/>
<stop offset="0.3" stop-color="#C74C4D"/>
<stop offset="0.6" stop-color="#C21975"/>
<stop offset="1" stop-color="#7024C4"/>
</linearGradient>
<linearGradient id="paint2_linear" x1="42.3652" y1="51.8836" x2="42.3652" y2="12.3107" gradientUnits="userSpaceOnUse">
<stop stop-color="#E09B3D"/>
<stop offset="0.3" stop-color="#C74C4D"/>
<stop offset="0.6" stop-color="#C21975"/>
<stop offset="1" stop-color="#7024C4"/>
</linearGradient>
</defs>
</svg>
