<svg width="64" height="64" viewBox="0 0 64 64" fill="none" xmlns="http://www.w3.org/2000/svg">
<g clip-path="url(#clip0)">
<path d="M32 63.999C49.6731 63.999 64 49.6721 64 31.999C64 14.3259 49.6731 -0.000976562 32 -0.000976562C14.3269 -0.000976562 0 14.3259 0 31.999C0 49.6721 14.3269 63.999 32 63.999Z" fill="#007AB9"/>
<path d="M51.1197 34.5744V47.7673H43.4708V35.4586C43.4708 32.368 42.3665 30.2574 39.597 30.2574C37.4836 30.2574 36.2281 31.6784 35.6736 33.0542C35.4722 33.5459 35.4203 34.2288 35.4203 34.9184V47.7668H27.7709C27.7709 47.7668 27.8735 26.9198 27.7709 24.7619H35.4209V28.0219C35.4055 28.0476 35.3838 28.0727 35.3701 28.0972H35.4209V28.0219C36.4374 26.4578 38.2502 24.2217 42.3145 24.2217C47.3469 24.2217 51.1197 27.5097 51.1197 34.5744ZM19.7689 13.6727C17.1523 13.6727 15.4404 15.3903 15.4404 17.6469C15.4404 19.8556 17.1027 21.6228 19.6685 21.6228H19.7181C22.386 21.6228 24.0448 19.8556 24.0448 17.6469C23.994 15.3903 22.386 13.6727 19.7689 13.6727ZM15.8951 47.7673H23.5417V24.7619H15.8951V47.7673Z" fill="#F1F2F2"/>
</g>
<defs>
<clipPath id="clip0">
<rect width="64" height="64" fill="white"/>
</clipPath>
</defs>
</svg>
