<svg width="213" height="73" viewBox="0 0 213 73" fill="none" xmlns="http://www.w3.org/2000/svg">
<rect x="1" y="1" width="211" height="71" stroke="white" stroke-width="2"/>
<path d="M10.7182 52L21.2962 24.308H26.5422L37.0342 52H32.2182L29.4662 44.862H18.3292L15.5772 52H10.7182ZM19.0602 41.25H28.6922L23.8762 28.565L19.0602 41.25ZM41.6436 52V24.308H45.7716L60.2196 44.69V24.308H64.8636V52H60.7356L46.3306 31.661V52H41.6436ZM83.2242 52.43C78.6662 52.43 75.2262 51.1973 72.9042 48.732C70.6109 46.2667 69.4642 42.927 69.4642 38.713C69.4642 35.6743 69.9659 33.0513 70.9692 30.844C71.9726 28.608 73.4919 26.888 75.5272 25.684C77.5912 24.48 80.1999 23.878 83.3532 23.878C84.9872 23.878 86.4636 23.9927 87.7822 24.222C89.1296 24.4227 90.3909 24.7237 91.5662 25.125V29.167C89.2156 28.307 86.6069 27.877 83.7402 27.877C80.2142 27.877 77.7346 28.8087 76.3012 30.672C74.8966 32.5353 74.1942 35.2157 74.1942 38.713C74.1942 41.895 74.9396 44.3173 76.4302 45.98C77.9209 47.6427 80.2286 48.474 83.3532 48.474C85.8186 48.474 87.8109 48.1873 89.3302 47.614V39.874H82.4072V36.821H93.3292V50.151C92.4406 50.7243 91.1649 51.2547 89.5022 51.742C87.8682 52.2007 85.7756 52.43 83.2242 52.43ZM97.8711 52V24.308H117.178V27.963H102.558V36.348H115.587V39.96H102.558V48.388H117.178V52H97.8711ZM121.513 52V24.308H126.2V48.388H140.39V52H121.513ZM155.058 52.43C150.672 52.43 147.389 51.2833 145.211 48.99C143.032 46.668 141.943 43.0847 141.943 38.24C141.943 33.1947 143.032 29.5397 145.211 27.275C147.389 25.0103 150.672 23.878 155.058 23.878C159.472 23.878 162.755 25.0103 164.905 27.275C167.083 29.5397 168.173 33.1947 168.173 38.24C168.173 43.0847 167.083 46.668 164.905 48.99C162.755 51.2833 159.472 52.43 155.058 52.43ZM155.058 48.474C157.953 48.474 160.074 47.6857 161.422 46.109C162.798 44.5037 163.486 41.8807 163.486 38.24C163.486 34.3987 162.798 31.7183 161.422 30.199C160.074 28.651 157.953 27.877 155.058 27.877C152.191 27.877 150.07 28.651 148.694 30.199C147.346 31.7183 146.673 34.3987 146.673 38.24C146.673 41.8807 147.346 44.5037 148.694 46.109C150.07 47.6857 152.191 48.474 155.058 48.474ZM179.504 52V27.963H170.646V24.308H193.006V27.963H184.191V52H179.504ZM196.763 52V24.308H201.45V52H196.763Z" fill="white"/>
</svg>
