<svg width="900" height="479" viewBox="0 0 900 479" fill="none" xmlns="http://www.w3.org/2000/svg">
<g clip-path="url(#clip0)">
<path d="M199.305 229.754H182.883V279.588H199.305V229.754Z" fill="#3F3D56"/>
<path d="M641.241 227.161H624.819V279.882H641.241V227.161Z" fill="#3F3D56"/>
<path d="M745.966 461.227V472.463L614.664 473.673L613.264 473.699L563.36 474.157L562.167 474.174L546.999 474.304H546.549L454.088 475.159L302.31 476.568H302.181L263.59 476.931L263.175 476.94L91.7007 478.513V465.549L132.02 441.348L212.917 440.674L214.646 440.666L215.216 440.657L216.945 440.631L255.786 440.311L257.523 440.303L258.076 440.294L259.805 440.285L272.259 440.182L272.587 440.173L303.313 439.914H303.564L543.317 437.891L549.185 437.848H549.773L554.25 437.805L586.791 437.537L588.519 437.511L590.118 437.494H590.948L601.069 437.416L603.074 437.39L605.762 437.373L614.189 437.295L627.559 437.183L629.288 437.165L632.295 437.148H632.857L697.428 436.595L745.966 461.227Z" fill="#65617D"/>
<path opacity="0.2" d="M745.966 461.227V472.463L614.664 473.673L613.264 473.699L563.36 474.157L562.167 474.174L546.999 474.304H546.549L454.088 475.159L302.31 476.568H302.181L263.59 476.931L263.175 476.94L91.7007 478.513V465.549L132.02 441.348L212.917 440.674L214.646 440.666L215.216 440.657L216.945 440.631L255.786 440.311L257.523 440.303L258.076 440.294L259.805 440.285L272.259 440.182L272.587 440.173L303.313 439.914H303.564L543.317 437.891L549.185 437.848H549.773L554.25 437.805L586.791 437.537L588.519 437.511L590.118 437.494H590.948L601.069 437.416L603.074 437.39L605.762 437.373L614.189 437.295L627.559 437.183L629.288 437.165L632.295 437.148H632.857L697.428 436.595L745.966 461.227Z" fill="black"/>
<path d="M255.915 418.021V439.188C255.916 440.19 255.632 441.172 255.096 442.02C254.561 442.868 253.796 443.546 252.89 443.976C252.216 444.303 251.479 444.48 250.73 444.495L220.566 445.134C219.761 445.153 218.962 444.985 218.232 444.641C217.311 444.219 216.53 443.541 215.983 442.687C215.436 441.834 215.146 440.841 215.147 439.827V418.021H255.915Z" fill="#3F3D56"/>
<path opacity="0.1" d="M255.915 418.021V439.188C255.916 440.19 255.632 441.172 255.096 442.02C254.561 442.868 253.796 443.546 252.89 443.976C252.216 444.303 251.479 444.48 250.73 444.495L220.566 445.134C219.761 445.153 218.962 444.985 218.232 444.641C217.311 444.219 216.53 443.541 215.983 442.687C215.436 441.834 215.146 440.841 215.147 439.827V418.021H255.915Z" fill="black"/>
<path d="M257.644 418.021V439.188C257.644 440.19 257.36 441.172 256.825 442.02C256.29 442.868 255.525 443.546 254.619 443.976C253.945 444.303 253.208 444.48 252.458 444.495L222.295 445.134C221.489 445.153 220.69 444.985 219.961 444.641C219.039 444.219 218.259 443.541 217.712 442.687C217.165 441.834 216.874 440.841 216.875 439.827V418.021H257.644Z" fill="#3F3D56"/>
<path d="M629.288 418.021H588.52V445.246H629.288V418.021Z" fill="#3F3D56"/>
<path opacity="0.1" d="M629.288 418.021H588.52V445.246H629.288V418.021Z" fill="black"/>
<path d="M627.559 418.021H586.791V445.246H627.559V418.021Z" fill="#3F3D56"/>
<path opacity="0.1" d="M199.305 229.745V234.697L182.883 234.274V229.745H199.305Z" fill="black"/>
<path d="M307.393 90.2316L287.661 231.975C287.536 232.88 287.081 233.708 286.385 234.299C285.688 234.891 284.798 235.205 283.884 235.181L125.892 231.085L122.893 231.007C122.371 230.994 121.857 230.872 121.385 230.648C120.914 230.424 120.495 230.102 120.155 229.705C119.816 229.308 119.564 228.844 119.417 228.343C119.269 227.842 119.228 227.315 119.298 226.798L141.449 78.4168C141.592 77.4977 142.074 76.6655 142.801 76.0847C143.527 75.5038 144.445 75.2165 145.373 75.2795L303.935 86.0139C304.447 86.0435 304.947 86.1789 305.403 86.4115C305.86 86.644 306.264 86.9687 306.588 87.365C306.913 87.7613 307.152 88.2207 307.291 88.7141C307.429 89.2075 307.464 89.7242 307.393 90.2316V90.2316Z" fill="#65617D"/>
<path d="M152.054 85.7028L135.348 216.495L280.548 221.102L298.404 94.9161L152.054 85.7028Z" fill="#1B3853"/>
<path d="M504.692 83.6803H337.012C334.468 83.6803 332.405 85.7428 332.405 88.287V228.881C332.405 231.425 334.468 233.487 337.012 233.487H504.692C507.237 233.487 509.299 231.425 509.299 228.881V88.287C509.299 85.7428 507.237 83.6803 504.692 83.6803Z" fill="#65617D"/>
<path d="M501.511 93.7666H340.754V218.509H501.511V93.7666Z" fill="#1B3853"/>
<path opacity="0.1" d="M641.241 227.152V230.428L624.819 230.765V227.152H641.241Z" fill="black"/>
<path d="M715.336 224.386C715.36 224.744 715.311 225.104 715.192 225.442C715.073 225.781 714.887 226.092 714.644 226.357C714.402 226.621 714.109 226.835 713.782 226.983C713.456 227.132 713.102 227.213 712.744 227.221L550.949 230.566C550.277 230.58 549.624 230.339 549.123 229.892C548.621 229.444 548.307 228.824 548.244 228.155L534.337 83.5766C534.303 83.2179 534.342 82.856 534.451 82.5128C534.561 82.1695 534.739 81.8521 534.975 81.5798C535.211 81.3075 535.5 81.0859 535.824 80.9284C536.148 80.771 536.501 80.681 536.861 80.664L697.428 72.678L699.157 72.5915C699.844 72.5553 700.518 72.7875 701.038 73.239C701.557 73.6905 701.88 74.326 701.94 75.0115L715.336 224.386Z" fill="#65617D"/>
<path d="M543.576 89.1599L690.22 81.9518L702.605 213.323L557.12 216.781L543.576 89.1599Z" fill="#1B3853"/>
<path opacity="0.1" d="M715.336 224.386C715.36 224.744 715.31 225.104 715.191 225.442C715.073 225.781 714.886 226.092 714.644 226.357C714.402 226.621 714.109 226.834 713.782 226.983C713.455 227.132 713.102 227.213 712.743 227.221L697.428 72.678L699.157 72.5915C699.844 72.5553 700.518 72.7875 701.037 73.239C701.557 73.6905 701.88 74.326 701.94 75.0115L715.336 224.386Z" fill="black"/>
<path opacity="0.1" d="M145.399 75.2708L125.892 231.085L122.893 231.007C122.371 230.994 121.857 230.872 121.385 230.648C120.914 230.424 120.495 230.102 120.155 229.705C119.816 229.308 119.564 228.844 119.417 228.343C119.269 227.842 119.228 227.315 119.298 226.798L141.449 78.4168C141.59 77.4914 142.076 76.6533 142.808 76.07C143.54 75.4868 144.466 75.2013 145.399 75.2708V75.2708Z" fill="black"/>
<path opacity="0.1" d="M199.305 264.826H182.883V279.588H199.305V264.826Z" fill="black"/>
<path opacity="0.1" d="M257.644 418.013V422.308L216.875 423.397V418.013H257.644Z" fill="black"/>
<path d="M329.596 269.969V415.342C329.586 416.229 329.235 417.079 328.615 417.714C327.996 418.35 327.156 418.723 326.269 418.756L160.628 423.164H160.585C159.683 423.153 158.821 422.789 158.183 422.152C157.545 421.514 157.182 420.652 157.171 419.75V269.969C157.182 269.067 157.545 268.205 158.183 267.567C158.821 266.929 159.683 266.566 160.585 266.555H326.182C327.084 266.566 327.946 266.929 328.584 267.567C329.222 268.205 329.585 269.067 329.596 269.969V269.969Z" fill="#65617D"/>
<path opacity="0.1" d="M160.628 266.555V423.164H160.585C159.683 423.153 158.821 422.789 158.183 422.152C157.545 421.514 157.182 420.652 157.171 419.75V269.969C157.182 269.067 157.545 268.205 158.183 267.567C158.821 266.929 159.683 266.566 160.585 266.555H160.628Z" fill="black"/>
<path d="M168.19 275.837H321.602V403.968L168.19 407.425V275.837Z" fill="#D4DFEC"/>
<path opacity="0.1" d="M641.241 264.826H624.819V279.882H641.241V264.826Z" fill="black"/>
<path opacity="0.1" d="M627.559 418.013V423.553L586.791 422.464V418.013H627.559Z" fill="black"/>
<path d="M681.361 269.969V419.75C681.35 420.659 680.981 421.528 680.334 422.167C679.686 422.806 678.814 423.164 677.904 423.164V423.164L512.229 418.756C511.342 418.723 510.502 418.35 509.883 417.714C509.263 417.079 508.912 416.229 508.901 415.342V269.969C508.913 269.067 509.276 268.205 509.914 267.567C510.552 266.929 511.413 266.566 512.315 266.555H677.913C678.821 266.557 679.691 266.916 680.337 267.555C680.982 268.194 681.35 269.061 681.361 269.969V269.969Z" fill="#65617D"/>
<path opacity="0.1" d="M681.361 269.969V419.75C681.35 420.659 680.98 421.528 680.333 422.167C679.686 422.806 678.813 423.164 677.904 423.164V423.164V266.555C678.813 266.555 679.686 266.913 680.333 267.552C680.98 268.191 681.35 269.059 681.361 269.969Z" fill="black"/>
<path d="M670.342 275.837H516.931V403.968L670.342 407.425V275.837Z" fill="#D4DFEC"/>
<path d="M504.614 269.969V415.342C504.604 416.229 504.253 417.079 503.633 417.714C503.014 418.35 502.174 418.723 501.287 418.756L335.646 423.164C334.737 423.164 333.864 422.806 333.217 422.167C332.57 421.528 332.2 420.659 332.189 419.75V269.969C332.2 269.067 332.563 268.205 333.201 267.567C333.839 266.929 334.701 266.566 335.603 266.555H501.2C502.102 266.566 502.964 266.929 503.602 267.567C504.24 268.205 504.603 269.067 504.614 269.969V269.969Z" fill="#65617D"/>
<path d="M343.208 275.837H496.62V403.968L343.208 407.425V275.837Z" fill="#D4DFEC"/>
<path opacity="0.1" d="M745.966 461.227V472.463L614.664 473.673L613.264 473.699L563.36 474.157L562.167 474.174L546.999 474.304H546.549L454.088 475.159L302.31 476.568H302.181L263.59 476.931L263.175 476.94L91.7007 478.513V465.549L266.728 464.399H267.142L302.57 464.157H302.734L547.396 462.541H547.647L547.794 462.532H548.2L552.34 462.506H553.602L617.983 462.074L621.786 462.057L622.633 462.048L745.966 461.227Z" fill="black"/>
<path d="M421.133 279.588C445.634 279.588 465.497 259.726 465.497 235.225C465.497 210.723 445.634 190.861 421.133 190.861C396.631 190.861 376.769 210.723 376.769 235.225C376.769 259.726 396.631 279.588 421.133 279.588Z" fill="#FBBEBE"/>
<path d="M465.506 325.975C465.506 325.975 379.509 336.346 387.72 325.975C390.693 322.224 391.514 311.109 391.35 298.447C391.298 294.601 391.159 290.617 390.961 286.65C390.01 267.635 387.72 249.053 387.72 249.053C387.72 249.053 462.913 213.617 454.27 241.707C450.813 253.055 451.945 268.992 454.572 283.953C455.341 288.318 456.232 292.596 457.165 296.658C459.443 306.566 462.227 316.351 465.506 325.975V325.975Z" fill="#FBBEBE"/>
<path opacity="0.1" d="M465.506 325.975C465.506 325.975 379.509 336.346 387.72 325.975C390.693 322.224 391.514 311.109 391.35 298.447C404.461 292.847 421.142 297.021 421.142 297.021C438.704 293.521 449.966 294.204 457.165 296.658C459.443 306.566 462.227 316.351 465.506 325.975V325.975Z" fill="black"/>
<path d="M302.276 477.545V476.819L454.062 475.168L546.541 474.304H546.8L546.705 475.583L546.835 474.304H546.999V474.157L548.183 462.532L548.633 458.133L548.771 456.759L548.892 455.609L554.233 437.796L559.575 420.009L564.069 405.031L570.931 382.145C570.931 382.145 567.042 373.07 564.881 370.477C562.721 367.884 560.56 350.166 560.56 350.166C560.56 350.166 542.116 332.595 534.052 330.573C530.673 329.708 524 328.559 516.913 327.116C514.26 326.58 511.537 326.009 508.919 325.387C507.441 325.05 505.989 324.696 504.597 324.341C501.889 323.665 499.22 322.84 496.603 321.869C495.23 321.371 493.924 320.706 492.713 319.89C486.361 315.232 470.441 314.704 469.827 314.704C469.825 314.684 469.825 314.664 469.827 314.644V314.566C469.849 314.203 469.849 313.84 469.827 313.477C469.827 313.131 469.827 312.725 469.749 312.267C469.749 312.129 469.749 311.982 469.689 311.835C469.645 311.524 469.594 311.195 469.516 310.85C469.49 310.695 469.455 310.542 469.412 310.392C469.162 309.35 468.799 308.339 468.332 307.375C468.271 307.237 468.193 307.09 468.124 306.952C467.7 306.153 467.209 305.393 466.655 304.679C466.543 304.532 466.422 304.376 466.292 304.229C465.584 303.394 464.797 302.63 463.941 301.948C463.708 301.766 463.466 301.576 463.215 301.403C463.075 301.29 462.928 301.186 462.774 301.092L462.005 300.591L461.288 300.176C460.657 299.83 459.991 299.493 459.265 299.173C459.041 299.069 458.799 298.974 458.557 298.879C458.315 298.784 457.934 298.637 457.615 298.516H457.563L456.914 298.257C456.422 298.093 455.92 297.946 455.393 297.799L454.59 297.592L453.725 297.393L452.861 297.211C451.997 297.038 451.072 296.883 450.104 296.762L449.119 296.641L448.107 296.537L447.062 296.451L445.575 296.364L443.846 296.304C436.223 296.303 428.621 297.111 421.168 298.715C415.99 297.563 410.687 297.075 405.386 297.263H404.634L403.769 297.315H403.216L402.101 297.419C401.73 297.419 401.349 297.496 400.978 297.548C400.606 297.6 400.217 297.643 399.845 297.704L399.275 297.799C398.713 297.894 398.143 297.998 397.547 298.119C397.356 298.153 397.166 298.197 396.976 298.248C396.224 298.413 395.472 298.611 394.729 298.836C394.357 298.94 393.986 299.061 393.614 299.19C393.424 299.242 393.242 299.311 393.061 299.381L392.508 299.579L391.963 299.795L391.315 300.055C390.987 300.193 390.667 300.34 390.347 300.496C390.165 300.573 389.984 300.66 389.811 300.755C389.638 300.85 389.457 300.928 389.293 301.023C387.338 302.033 385.532 303.306 383.925 304.808L383.485 305.232L383.052 305.673C382.905 305.82 382.767 305.975 382.629 306.131C382.066 306.746 381.54 307.396 381.056 308.075C380.918 308.257 380.788 308.438 380.658 308.628C380.11 309.437 379.613 310.28 379.172 311.152C379.059 311.36 378.956 311.576 378.852 311.783C378.147 313.243 377.568 314.761 377.123 316.321C376.962 316.897 376.815 317.473 376.683 318.049C376.683 318.049 358.386 326.122 343.209 331.964C339.173 333.52 335.37 334.929 332.189 335.992C331.264 336.303 330.4 336.588 329.596 336.856C327.852 337.487 326.038 337.904 324.194 338.101C323.325 338.115 322.458 338.196 321.602 338.343C314.627 339.475 302.674 344.393 301.369 349.328C301.263 349.722 301.233 350.133 301.282 350.538C301.282 350.538 301.282 350.598 301.282 350.633C302.146 356.683 296.096 355.819 296.096 355.819C296.096 355.819 293.936 371.808 290.911 376.129C288.724 379.241 287.229 386.181 287.039 391.419C286.93 393.05 287.058 394.689 287.419 396.285C287.419 396.328 287.419 396.371 287.419 396.406C287.765 397.564 286.935 400.727 285.526 404.781C283.996 409.232 281.767 414.763 279.623 419.983C276.391 427.866 273.348 435.022 273.158 436.595C273.08 437.295 272.856 438.548 272.545 440.164C271.283 446.75 268.482 459.291 267.1 464.365C266.071 468.15 264.576 473.336 263.547 476.897C263.547 477 263.487 477.104 263.461 477.199L302.207 476.819V477.545H302.328H302.276Z" fill="#1B3853"/>
<path opacity="0.1" d="M316.416 375.671C316.416 375.671 365.68 401.168 383.398 398.143L316.416 375.671Z" fill="black"/>
<path opacity="0.1" d="M416.673 365.3C416.673 365.3 464.641 380.857 480.63 383.018C496.619 385.178 416.673 365.3 416.673 365.3Z" fill="black"/>
<path opacity="0.1" d="M469.879 315.24C444.814 319.856 397.624 318.862 377.227 318.162C384.703 291.369 421.159 300.478 421.159 300.478C466.283 291.472 469.74 310.158 469.879 315.24Z" fill="black"/>
<path d="M469.879 313.512C444.814 318.127 397.624 317.133 377.227 316.433C384.703 289.64 421.159 298.75 421.159 298.75C466.283 289.744 469.74 308.43 469.879 313.512Z" fill="#1B3853"/>
<path d="M602.927 431.634C602.927 431.634 632.451 427.096 633.03 440.061C633.61 453.025 617.974 462.083 617.974 462.083L602.927 431.634Z" fill="#FBBEBE"/>
<path opacity="0.1" d="M454.572 283.953C453.302 284.521 452.004 285.023 450.683 285.457C441.366 288.672 431.971 291.913 422.161 293.089C412.352 294.264 402.058 293.227 393.501 288.335C392.603 287.828 391.737 287.265 390.909 286.65C389.958 267.635 387.667 249.053 387.667 249.053C387.667 249.053 462.861 213.617 454.218 241.707C450.778 253.055 451.945 268.992 454.572 283.953Z" fill="black"/>
<path d="M408.964 165.883C407.73 166.209 406.438 166.241 405.189 165.979C403.941 165.716 402.771 165.165 401.773 164.37L403.571 166.868C402.511 166.99 401.438 166.88 400.426 166.544C399.413 166.208 398.487 165.655 397.711 164.923C397.548 167.159 397.641 169.407 397.987 171.622C395.013 171.765 392.084 170.846 389.725 169.029C389.679 169.808 389.873 170.584 390.281 171.25C390.689 171.916 391.291 172.441 392.007 172.754C389.018 172.397 386.003 173.139 383.522 174.843C381.041 176.546 379.264 179.094 378.524 182.01L383.035 182.425C379.49 183.182 376.307 185.124 374.012 187.931C372.629 189.659 371.575 191.872 372.18 193.981C372.785 196.09 375.706 197.438 377.296 195.934C375.034 198.634 373.39 201.796 372.479 205.199C371.569 208.601 371.413 212.162 372.024 215.631C372.434 217.109 372.569 218.65 372.422 220.177C372.137 221.603 371.238 222.839 370.788 224.231C369.924 226.755 370.745 229.494 371.514 232.009L375.568 245.337C377.037 250.151 378.498 254.974 380.416 259.632C381.775 262.577 382.93 265.612 383.874 268.716C384.963 272.899 385.006 277.48 387.331 281.136C388.924 283.436 391.054 285.314 393.536 286.606C402.084 291.498 412.412 292.535 422.196 291.36C431.98 290.185 441.366 286.944 450.674 283.728C452.742 283.105 454.727 282.235 456.586 281.136C463.025 276.918 464.46 268.292 465.661 260.695C467.001 252.225 468.79 243.772 471.962 235.804C473.846 231.059 476.283 226.245 475.868 221.163C475.341 214.412 470 208.942 468.677 202.304C468.235 200.085 468.255 197.799 468.738 195.588C469.148 194.271 469.378 192.905 469.421 191.526C469.274 188.743 466.992 186.6 464.849 184.811C460.199 180.927 455.399 177.257 450.45 173.8C450.199 172.071 452.55 171.328 453.613 169.962C455.117 168.035 453.561 164.975 451.279 164.076C448.998 163.178 446.439 163.765 444.063 164.362C444.217 163.145 443.975 161.911 443.373 160.843C442.77 159.775 441.838 158.93 440.717 158.434C439.595 157.938 438.344 157.817 437.148 158.089C435.952 158.361 434.876 159.012 434.08 159.945C433.449 158.498 432.44 157.246 431.16 156.322C429.88 155.398 428.375 154.834 426.803 154.69C421.072 154.241 420.96 158.623 417.296 161.034C413.631 163.445 410.606 160.265 407.788 157.949C407.271 159.258 407.107 160.68 407.313 162.073C407.519 163.466 408.089 164.78 408.964 165.883V165.883Z" fill="#252333"/>
<path d="M624.819 457.563C624.819 457.563 624.05 459.395 622.633 462.048C620.489 466.13 617.878 469.95 614.854 473.431L614.621 473.681H613.221L563.317 474.14H562.124L561.977 473.967L552.297 462.48L548.65 458.15L548.503 457.969L548.192 457.606L548.019 457.398L547.794 457.13L540.698 448.712L543.291 437.909L547.708 419.707L547.82 419.266L548.684 415.809L549.298 413.216L551.355 404.763L558.407 375.68L570.94 382.162L584.155 405.498L591.25 418.03H595.14C595.874 418.03 597.56 419.447 599.254 421.081C599.859 421.66 600.464 422.274 600.982 422.81C602.521 424.4 603.739 425.765 603.739 425.765C603.739 425.765 610.04 425.904 611.734 430.865C611.821 431.105 611.894 431.35 611.95 431.599C612.512 433.549 613.244 435.446 614.137 437.269C615.252 439.698 616.652 442.455 618.069 445.212C620.705 450.268 623.385 455.082 624.37 456.828L624.491 457.044L624.819 457.563Z" fill="#1B3853"/>
<path opacity="0.1" d="M550.577 418.54L550.491 419.776V419.862L550.344 421.85L549.195 437.848L547.803 457.122L547.406 462.55L546.541 474.166V474.313L454.062 475.177L302.302 476.819V477.545H302.181V476.819V476.577L302.57 464.166L303.313 439.914L303.953 419.352L304.013 417.304C304.051 416.068 304.341 414.852 304.864 413.731C305.387 412.611 306.134 411.608 307.058 410.786C307.981 409.963 309.063 409.337 310.237 408.947C311.41 408.556 312.651 408.409 313.884 408.514C317.963 408.86 323.261 409.283 329.596 409.733L332.189 409.923C368.775 412.464 436.388 415.748 504.615 411.652C506.049 411.574 507.493 411.487 508.936 411.384C519.515 410.718 530.085 409.863 540.552 408.791C541.875 408.652 543.212 408.805 544.47 409.239C545.727 409.674 546.874 410.378 547.83 411.303C548.786 412.229 549.527 413.352 550.002 414.595C550.477 415.838 550.673 417.17 550.577 418.497V418.54Z" fill="black"/>
<path d="M302.276 477.545V476.819L454.062 475.168L546.541 474.304H546.8V474.157L547.664 462.541L548.036 457.355L549.454 437.814L550.568 422.343V421.963C550.62 421.25 550.588 420.533 550.473 419.828C550.478 419.799 550.478 419.77 550.473 419.741C550.236 418.283 549.642 416.905 548.745 415.731C547.793 414.511 546.546 413.553 545.122 412.948C543.697 412.343 542.142 412.111 540.603 412.274C530.137 413.346 519.566 414.201 508.988 414.867C507.544 414.97 506.101 415.057 504.666 415.135C436.439 419.188 368.826 415.904 332.241 413.406L329.648 413.216C323.313 412.766 318.015 412.352 313.935 411.997C311.691 411.808 309.456 412.457 307.662 413.818C305.868 415.18 304.642 417.157 304.221 419.37C304.133 419.838 304.081 420.311 304.065 420.787L303.477 439.94L302.673 464.2L302.293 476.611V476.853V477.579L302.276 477.545Z" fill="#3F3D56"/>
<path opacity="0.1" d="M550.836 424.599L549.773 437.848L548.192 457.597L547.794 462.541L546.93 473.612L546.878 474.165V474.312L546.748 475.592L546.843 474.312H546.593L454.114 475.177L302.302 476.819V476.577L302.725 464.166L303.59 439.914L304.143 423.795C304.17 422.878 304.426 421.982 304.888 421.19C305.35 420.397 306.003 419.733 306.787 419.257C307.766 418.657 308.91 418.385 310.054 418.479C311.869 418.626 314.099 418.799 316.701 418.989C320.927 419.3 326.139 419.663 332.206 420.044C343.442 420.752 357.538 421.513 373.692 422.135C418.635 423.864 479.308 424.443 536.939 419.396C539.531 419.171 542.211 418.92 544.829 418.67C545.866 418.566 546.91 418.764 547.837 419.24C548.1 419.371 548.349 419.527 548.581 419.707C549.333 420.252 549.929 420.985 550.309 421.833C550.397 422.001 550.47 422.178 550.525 422.36C550.785 423.076 550.891 423.839 550.836 424.599V424.599Z" fill="black"/>
<path opacity="0.1" d="M257.644 436.431V439.188C257.644 440.19 257.36 441.172 256.825 442.02C256.29 442.868 255.525 443.546 254.619 443.976L219.961 444.641C219.039 444.219 218.259 443.541 217.712 442.687C217.165 441.834 216.874 440.841 216.875 439.827V437.235L257.644 436.431Z" fill="black"/>
<path d="M258.077 445.601L212.917 446.465V438.972L258.077 438.107V445.601Z" fill="#3F3D56"/>
<path opacity="0.1" d="M258.077 445.601L212.917 446.465V438.972L258.077 438.107V445.601Z" fill="black"/>
<path d="M259.805 445.601L214.646 446.465V438.972L259.805 438.107V445.601Z" fill="#3F3D56"/>
<g opacity="0.1">
<path opacity="0.1" d="M409.318 163.048C408.474 161.951 407.913 160.662 407.684 159.297C407.476 160.632 407.601 161.997 408.048 163.273C408.476 163.233 408.901 163.158 409.318 163.048Z" fill="black"/>
<path opacity="0.1" d="M398.342 168.787C398.179 167.727 398.072 166.66 398.022 165.589C398.022 166.652 398.022 167.724 398.022 168.795L398.342 168.787Z" fill="black"/>
<path opacity="0.1" d="M468.781 197.628C468.829 196.858 468.933 196.093 469.092 195.338C469.501 194.023 469.734 192.66 469.784 191.284C469.764 190.975 469.718 190.669 469.645 190.368C469.499 191.163 469.265 191.958 469.092 192.745C468.747 194.348 468.642 195.994 468.781 197.628Z" fill="black"/>
<path opacity="0.1" d="M450.804 170.922L451.746 171.604C452.54 171.03 453.283 170.388 453.967 169.686C454.292 169.236 454.494 168.709 454.551 168.156C454.609 167.604 454.521 167.047 454.295 166.54C454.209 166.737 454.099 166.923 453.967 167.093C452.904 168.458 450.553 169.21 450.804 170.922Z" fill="black"/>
<path opacity="0.1" d="M379.786 179.236C379.47 179.866 379.219 180.526 379.034 181.207C380.386 180.452 381.842 179.901 383.355 179.573L379.786 179.236Z" fill="black"/>
<path opacity="0.1" d="M391.704 169.833C391.136 169.52 390.593 169.164 390.079 168.769C390.057 169.111 390.084 169.455 390.157 169.789C390.673 169.765 391.19 169.779 391.704 169.833V169.833Z" fill="black"/>
<path opacity="0.1" d="M476.205 220.756C475.851 224.948 473.898 228.984 472.316 232.96C469.144 240.929 467.355 249.382 466.015 257.86C464.814 265.457 463.423 274.083 456.94 278.292C455.088 279.398 453.105 280.27 451.037 280.885C441.72 284.109 432.326 287.341 422.516 288.517C412.706 289.692 402.413 288.663 393.856 283.772C391.375 282.477 389.246 280.6 387.65 278.301C385.343 274.645 385.3 270.064 384.193 265.881C383.25 262.775 382.095 259.737 380.736 256.788C378.826 252.139 377.357 247.281 375.896 242.502C374.542 238.059 373.191 233.614 371.843 229.166C371.399 227.828 371.069 226.454 370.857 225.061C370.52 227.273 371.177 229.589 371.843 231.759C373.191 236.213 374.542 240.658 375.896 245.095C377.357 249.909 378.826 254.731 380.736 259.381C382.095 262.33 383.25 265.367 384.193 268.474C385.282 272.657 385.326 277.238 387.65 280.893C389.246 283.193 391.375 285.07 393.856 286.364C402.413 291.256 412.732 292.285 422.516 291.109C432.3 289.934 441.686 286.701 451.037 283.478C453.105 282.862 455.088 281.991 456.94 280.885C463.379 276.676 464.814 268.05 466.015 260.453C467.355 251.974 469.144 243.522 472.316 235.553C474.2 230.817 476.638 226.003 476.223 220.912C476.223 220.86 476.205 220.808 476.205 220.756Z" fill="black"/>
<path opacity="0.1" d="M372.759 217.412C372.759 217.412 372.759 217.351 372.759 217.316C372.915 215.792 372.78 214.253 372.361 212.779C372.189 211.831 372.076 210.872 372.024 209.91C371.925 211.737 372.038 213.57 372.361 215.372C372.5 216.046 372.655 216.729 372.759 217.412Z" fill="black"/>
<path opacity="0.1" d="M375.395 196.271C376.059 195.154 376.814 194.094 377.65 193.099C376.069 194.612 373.148 193.263 372.534 191.163C372.308 192.013 372.308 192.907 372.534 193.756C372.747 194.39 373.123 194.957 373.626 195.399C374.128 195.84 374.738 196.141 375.395 196.271V196.271Z" fill="black"/>
</g>
<path opacity="0.1" d="M591.259 418.021C591.259 418.021 593.999 427.961 591.259 436.604C588.519 445.246 591.259 418.021 591.259 418.021Z" fill="black"/>
<path opacity="0.1" d="M602.927 428.159C602.927 428.159 604.077 440.778 601.484 443.017C598.891 445.255 602.927 428.159 602.927 428.159Z" fill="black"/>
<path d="M171.984 296.33L259.805 295.465" stroke="#83BCA9" stroke-width="2" stroke-miterlimit="10"/>
<path d="M171.984 307.107L259.805 306.252" stroke="#83BCA9" stroke-width="2" stroke-miterlimit="10"/>
<path d="M171.984 317.894L259.805 317.029" stroke="#83BCA9" stroke-width="2" stroke-miterlimit="10"/>
</g>
<defs>
<clipPath id="clip0">
<rect width="900" height="478.962" fill="white"/>
</clipPath>
</defs>
</svg>
