<svg width="900" height="479" viewBox="0 0 900 479" fill="none" xmlns="http://www.w3.org/2000/svg">
<g id="undraw_programming_2svr 1" clip-path="url(#clip0)">
<path id="Vector" d="M199.305 229.754H182.883V279.588H199.305V229.754Z" fill="#3F3D56"/>
<path id="Vector_2" d="M641.241 227.161H624.819V279.882H641.241V227.161Z" fill="#3F3D56"/>
<path id="Vector_3" d="M746 462.856V477L616.5 478.5L615.1 478.527L563.692 478.982L562.5 479H547.449H547L454.24 477.48L302.524 478.959H302.394L263.82 479.34L263.405 479.349L92 481V467.392L132.303 441.99L213.167 441.282L214.895 441.273L215.465 441.264L217.193 441.237L256.018 440.901L257.755 440.892L258.308 440.883L260.036 440.874L272.485 440.765L272.813 440.756L303.526 440.484H303.777L543.433 438.361L549.299 438.315H549.886L554.362 438.27L586.889 437.989L588.617 437.962L590.215 437.944H591.044L601.161 437.862L603.165 437.835L605.852 437.816L614.276 437.735L627.641 437.617L629.369 437.599L632.375 437.581H632.937L697.481 437L746 462.856Z" fill="#65617D"/>
<path id="Vector_4" opacity="0.2" d="M746 463V477.216L614.751 478.573L613.351 478.602L563.467 479.116L562.275 479.135L547.113 479.281H546.664L454.5 479H303.777H298H267.5H263.82H92V467.5L132.303 442.33L213.167 441.574L214.895 441.564L215.465 441.555L217.193 441.526L256.018 441.167L257.755 441.157L258.308 441.148L260.036 441.138L272.485 441.022L272.813 441.012L303.526 440.721H303.777L543.433 438.454L549.299 438.405H549.886L554.362 438.357L586.889 438.056L588.617 438.027L590.215 438.008H591.044L601.161 437.921L603.165 437.892L605.852 437.872L614.276 437.785L627.641 437.659L629.369 437.64L632.375 437.62H632.937L697.481 437L746 463Z" fill="black"/>
<path id="Vector_5" d="M255.915 418.021V439.188C255.916 440.19 255.632 441.172 255.096 442.02C254.561 442.868 253.796 443.546 252.89 443.976C252.216 444.303 251.479 444.48 250.73 444.495L220.566 445.134C219.761 445.153 218.962 444.985 218.232 444.641C217.311 444.219 216.53 443.541 215.983 442.687C215.436 441.834 215.146 440.841 215.147 439.827V418.021H255.915Z" fill="#3F3D56"/>
<path id="Vector_6" opacity="0.1" d="M255.915 418.021V439.188C255.916 440.19 255.632 441.172 255.096 442.02C254.561 442.868 253.796 443.546 252.89 443.976C252.216 444.303 251.479 444.48 250.73 444.495L220.566 445.134C219.761 445.153 218.962 444.985 218.232 444.641C217.311 444.219 216.53 443.541 215.983 442.687C215.436 441.834 215.146 440.841 215.147 439.827V418.021H255.915Z" fill="black"/>
<path id="Vector_7" d="M257.644 418.021V439.188C257.644 440.19 257.36 441.172 256.825 442.02C256.29 442.868 255.525 443.546 254.619 443.976C253.945 444.303 253.208 444.48 252.458 444.495L222.295 445.134C221.489 445.153 220.69 444.985 219.961 444.641C219.039 444.219 218.259 443.541 217.712 442.687C217.165 441.834 216.874 440.841 216.875 439.827V418.021H257.644Z" fill="#3F3D56"/>
<path id="Vector_8" d="M629.288 418.021H588.52V445.246H629.288V418.021Z" fill="#3F3D56"/>
<path id="Vector_9" opacity="0.1" d="M629.288 418.021H588.52V445.246H629.288V418.021Z" fill="black"/>
<path id="Vector_10" d="M627.559 418.021H586.791V445.246H627.559V418.021Z" fill="#3F3D56"/>
<path id="Vector_11" opacity="0.1" d="M199.305 229.745V234.697L182.883 234.274V229.745H199.305Z" fill="black"/>
<path id="Vector_12" d="M307.393 90.2316L287.661 231.975C287.536 232.88 287.081 233.708 286.385 234.299C285.688 234.891 284.798 235.205 283.884 235.181L125.892 231.085L122.893 231.007C122.371 230.994 121.857 230.872 121.385 230.648C120.914 230.424 120.495 230.102 120.155 229.705C119.816 229.308 119.564 228.844 119.417 228.343C119.269 227.842 119.228 227.315 119.298 226.798L141.449 78.4168C141.592 77.4977 142.074 76.6655 142.801 76.0847C143.527 75.5038 144.445 75.2165 145.373 75.2795L303.935 86.0139C304.447 86.0435 304.947 86.1789 305.403 86.4115C305.86 86.644 306.264 86.9687 306.588 87.365C306.913 87.7613 307.152 88.2207 307.291 88.7141C307.429 89.2074 307.464 89.7242 307.393 90.2316Z" fill="#65617D"/>
<path id="Vector_13" d="M152.054 85.7028L135.348 216.495L280.548 221.102L298.404 94.9161L152.054 85.7028Z" fill="#1B3853"/>
<path id="Vector_14" d="M504.692 83.6803H337.012C334.468 83.6803 332.405 85.7428 332.405 88.287V228.881C332.405 231.425 334.468 233.487 337.012 233.487H504.692C507.237 233.487 509.299 231.425 509.299 228.881V88.287C509.299 85.7428 507.237 83.6803 504.692 83.6803Z" fill="#65617D"/>
<path id="Vector_15" d="M501.511 93.7666H340.754V218.509H501.511V93.7666Z" fill="#1B3853"/>
<path id="Vector_16" opacity="0.1" d="M641.241 227.152V230.428L624.819 230.765V227.152H641.241Z" fill="black"/>
<path id="Vector_17" d="M715.336 224.386C715.36 224.744 715.311 225.104 715.192 225.442C715.073 225.781 714.887 226.092 714.644 226.357C714.402 226.621 714.109 226.835 713.782 226.983C713.456 227.132 713.102 227.213 712.744 227.221L550.949 230.566C550.277 230.58 549.624 230.339 549.123 229.892C548.621 229.444 548.307 228.824 548.244 228.155L534.337 83.5766C534.303 83.2179 534.342 82.856 534.451 82.5128C534.561 82.1695 534.739 81.8521 534.975 81.5798C535.211 81.3075 535.5 81.0859 535.824 80.9284C536.148 80.771 536.501 80.681 536.861 80.664L697.428 72.678L699.157 72.5915C699.844 72.5553 700.518 72.7875 701.038 73.239C701.557 73.6905 701.88 74.326 701.94 75.0115L715.336 224.386Z" fill="#65617D"/>
<path id="Vector_18" d="M543.576 89.1599L690.22 81.9518L702.605 213.323L557.12 216.781L543.576 89.1599Z" fill="#1B3853"/>
<path id="Vector_19" opacity="0.1" d="M715.336 224.386C715.36 224.744 715.31 225.104 715.191 225.442C715.073 225.781 714.886 226.092 714.644 226.357C714.402 226.621 714.109 226.834 713.782 226.983C713.455 227.132 713.102 227.213 712.743 227.221L697.428 72.678L699.157 72.5915C699.844 72.5553 700.518 72.7875 701.037 73.239C701.557 73.6905 701.88 74.326 701.94 75.0115L715.336 224.386Z" fill="black"/>
<path id="Vector_20" opacity="0.1" d="M145.399 75.2708L125.892 231.085L122.893 231.007C122.371 230.994 121.857 230.872 121.385 230.648C120.914 230.424 120.495 230.102 120.155 229.705C119.816 229.308 119.564 228.844 119.417 228.343C119.269 227.842 119.228 227.315 119.298 226.798L141.449 78.4168C141.59 77.4914 142.076 76.6533 142.808 76.07C143.54 75.4868 144.466 75.2013 145.399 75.2708Z" fill="black"/>
<path id="Vector_21" opacity="0.1" d="M199.305 264.826H182.883V279.588H199.305V264.826Z" fill="black"/>
<path id="Vector_22" opacity="0.1" d="M257.644 418.013V422.308L216.875 423.397V418.013H257.644Z" fill="black"/>
<path id="Vector_23" d="M329.596 269.969V415.342C329.586 416.229 329.235 417.079 328.615 417.714C327.996 418.35 327.156 418.723 326.269 418.756L160.628 423.164H160.585C159.683 423.153 158.821 422.789 158.183 422.152C157.545 421.514 157.182 420.652 157.171 419.75V269.969C157.182 269.067 157.545 268.205 158.183 267.567C158.821 266.929 159.683 266.566 160.585 266.555H326.182C327.084 266.566 327.946 266.929 328.584 267.567C329.222 268.205 329.585 269.067 329.596 269.969Z" fill="#65617D"/>
<path id="Vector_24" opacity="0.1" d="M160.628 266.555V423.164H160.585C159.683 423.153 158.821 422.789 158.183 422.152C157.545 421.514 157.182 420.652 157.171 419.75V269.969C157.182 269.067 157.545 268.205 158.183 267.567C158.821 266.929 159.683 266.566 160.585 266.555H160.628Z" fill="black"/>
<path id="Vector_25" d="M168.19 275.837H321.602V403.968L168.19 407.425V275.837Z" fill="#D4DFEC"/>
<rect id="Rectangle 18" x="206.25" y="366.25" width="77.5" height="14.5" rx="7.25" fill="#AEAEAE" stroke="black" stroke-width="0.5"/>
<rect id="progressBar" x="207" y="367" width="13" height="13" rx="6.5" fill="#29DE5B"/>
<path id="Vector_26" opacity="0.1" d="M641.241 264.826H624.819V279.882H641.241V264.826Z" fill="black"/>
<path id="Vector_27" opacity="0.1" d="M627.559 418.013V423.553L586.791 422.464V418.013H627.559Z" fill="black"/>
<path id="Vector_28" d="M681.361 269.969V419.75C681.35 420.659 680.981 421.528 680.334 422.167C679.686 422.806 678.814 423.164 677.904 423.164L512.229 418.756C511.342 418.723 510.502 418.35 509.883 417.714C509.263 417.079 508.912 416.229 508.901 415.342V269.969C508.913 269.067 509.276 268.205 509.914 267.567C510.552 266.929 511.413 266.566 512.315 266.555H677.913C678.821 266.557 679.691 266.916 680.337 267.555C680.982 268.194 681.35 269.061 681.361 269.969Z" fill="#65617D"/>
<path id="Vector_29" opacity="0.1" d="M681.361 269.969V419.75C681.35 420.659 680.98 421.528 680.333 422.167C679.686 422.806 678.813 423.164 677.904 423.164V266.555C678.813 266.555 679.686 266.913 680.333 267.552C680.98 268.191 681.35 269.059 681.361 269.969Z" fill="black"/>
<path id="Vector_30" d="M670.342 275.837H516.931V403.968L670.342 407.425V275.837Z" fill="#D4DFEC"/>
<path id="Vector_31" d="M504.614 269.969V415.342C504.604 416.229 504.253 417.079 503.633 417.714C503.014 418.35 502.174 418.723 501.287 418.756L335.646 423.164C334.737 423.164 333.864 422.806 333.217 422.167C332.57 421.528 332.2 420.659 332.189 419.75V269.969C332.2 269.067 332.563 268.205 333.201 267.567C333.839 266.929 334.701 266.566 335.603 266.555H501.2C502.102 266.566 502.964 266.929 503.602 267.567C504.24 268.205 504.603 269.067 504.614 269.969Z" fill="#65617D"/>
<path id="Vector_32" d="M343.208 275.837H496.62V403.968L343.208 407.425V275.837Z" fill="#D4DFEC"/>
<path id="Vector_33" opacity="0.1" d="M746 463V476.769L619.088 478.088H614.799H567.727H563.721H550.201H546.194H455.055H302.932H302.802L264.153 478.444L263.737 478.453L92 480V467.25L267.295 466.119H267.71L303.192 465.881H303.356L548.394 464.292H548.645L548.792 464.283H549.199L553.345 464.258H554.609L619.088 463.833L622.897 463.816L623.745 463.807L746 463Z" fill="black"/>
<path id="Vector_34" d="M421.133 279.588C445.634 279.588 465.497 259.726 465.497 235.225C465.497 210.723 445.634 190.861 421.133 190.861C396.631 190.861 376.769 210.723 376.769 235.225C376.769 259.726 396.631 279.588 421.133 279.588Z" fill="#FBBEBE"/>
<path id="cabeca" d="M465.506 325.975C465.506 325.975 379.509 336.346 387.72 325.975C390.693 322.224 391.514 311.109 391.35 298.447C391.298 294.601 391.159 290.617 390.961 286.65C390.01 267.635 387.72 249.053 387.72 249.053C387.72 249.053 462.913 213.617 454.27 241.707C450.813 253.055 451.945 268.992 454.572 283.953C455.341 288.318 456.232 292.596 457.165 296.658C459.443 306.566 462.227 316.351 465.506 325.975Z" fill="#FBBEBE"/>
<rect id="Rectangle 14" x="526" y="313" width="25" height="19" fill="#70DDB9"/>
<rect id="Rectangle 15" x="565" y="284" width="50" height="19" fill="#70DDB9"/>
<rect id="Rectangle 16" x="571" y="373" width="42" height="19" fill="#218866"/>
<rect id="Rectangle 17" x="638" y="290" width="25" height="42" fill="#145942"/>
<path id="Vector_35" opacity="0.1" d="M465.506 325.975C465.506 325.975 379.509 336.346 387.72 325.975C390.693 322.224 391.514 311.109 391.35 298.447C404.461 292.847 421.142 297.021 421.142 297.021C438.704 293.521 449.966 294.204 457.165 296.658C459.443 306.566 462.227 316.351 465.506 325.975Z" fill="black"/>
<path id="Corpo" d="M301.882 500V499.183L453.93 497.325L546.568 496.352H546.828L546.732 497.792L546.862 496.352H547.027V496.187L548.213 483.102L548.663 478.15L548.802 476.604L548.923 475.31L554.273 455.26L559.624 435.239L564.126 418.381L571 392.62C571 392.62 567.104 382.406 564.94 379.487C562.775 376.569 560.611 356.626 560.611 356.626C560.611 356.626 542.135 336.849 534.057 334.572C530.672 333.599 523.988 332.306 516.889 330.681C514.231 330.078 511.504 329.436 508.881 328.735C507.4 328.356 505.946 327.957 504.552 327.558C501.839 326.797 499.165 325.868 496.543 324.776C495.169 324.215 493.86 323.467 492.647 322.548C486.284 317.305 470.336 316.711 469.721 316.711C469.72 316.689 469.72 316.666 469.721 316.643V316.556C469.744 316.147 469.744 315.738 469.721 315.33C469.721 314.941 469.721 314.484 469.644 313.968C469.644 313.812 469.644 313.647 469.583 313.482C469.54 313.131 469.488 312.762 469.41 312.373C469.384 312.199 469.349 312.027 469.306 311.857C469.055 310.685 468.692 309.546 468.224 308.462C468.163 308.306 468.085 308.141 468.016 307.985C467.591 307.086 467.099 306.23 466.544 305.427C466.432 305.261 466.31 305.086 466.18 304.921C465.471 303.981 464.683 303.121 463.826 302.353C463.592 302.148 463.349 301.934 463.098 301.74C462.958 301.612 462.811 301.495 462.657 301.389L461.886 300.825L461.168 300.358C460.536 299.969 459.869 299.59 459.142 299.23C458.917 299.113 458.674 299.006 458.432 298.899C458.189 298.792 457.808 298.627 457.488 298.49H457.436L456.787 298.199C456.293 298.014 455.791 297.848 455.263 297.683L454.458 297.449L453.592 297.226L452.726 297.021C451.861 296.827 450.934 296.652 449.964 296.516L448.977 296.379L447.965 296.263L446.917 296.165L445.428 296.068L443.696 296C436.059 295.999 428.444 296.909 420.978 298.714C415.792 297.417 410.479 296.868 405.169 297.08H404.416L403.55 297.138H402.996L401.879 297.255C401.507 297.255 401.126 297.342 400.754 297.401C400.381 297.459 399.992 297.508 399.62 297.576L399.048 297.683C398.485 297.79 397.914 297.907 397.317 298.043C397.126 298.082 396.936 298.13 396.745 298.189C395.992 298.374 395.239 298.597 394.494 298.85C394.122 298.967 393.75 299.103 393.377 299.249C393.187 299.308 393.005 299.385 392.823 299.463L392.269 299.687L391.724 299.93L391.074 300.222C390.745 300.378 390.425 300.543 390.105 300.718C389.923 300.806 389.741 300.903 389.568 301.01C389.395 301.117 389.213 301.205 389.048 301.312C387.091 302.448 385.282 303.882 383.672 305.573L383.23 306.049L382.797 306.545C382.65 306.711 382.512 306.886 382.373 307.061C381.809 307.754 381.283 308.485 380.798 309.25C380.659 309.454 380.529 309.658 380.399 309.872C379.85 310.783 379.352 311.732 378.91 312.713C378.798 312.946 378.694 313.19 378.59 313.423C377.883 315.067 377.304 316.775 376.858 318.531C376.697 319.179 376.549 319.828 376.417 320.476C376.417 320.476 358.088 329.562 342.885 336.138C338.842 337.89 335.033 339.475 331.847 340.672C330.92 341.022 330.054 341.343 329.249 341.645C327.502 342.354 325.685 342.825 323.838 343.045C322.967 343.062 322.099 343.153 321.241 343.318C314.254 344.592 302.28 350.128 300.973 355.682C300.867 356.126 300.837 356.588 300.886 357.044C300.886 357.044 300.886 357.112 300.886 357.151C301.752 363.961 295.692 362.988 295.692 362.988C295.692 362.988 293.527 380.985 290.497 385.849C288.307 389.352 286.809 397.163 286.618 403.059C286.51 404.895 286.638 406.74 286.999 408.536C286.999 408.584 286.999 408.633 286.999 408.672C287.346 409.975 286.514 413.536 285.103 418.098C283.571 423.108 281.337 429.335 279.19 435.21C275.952 444.082 272.904 452.137 272.714 453.908C272.636 454.696 272.411 456.106 272.099 457.926C270.835 465.338 268.03 479.454 266.645 485.165C265.615 489.425 264.117 495.262 263.087 499.27C263.087 499.387 263.026 499.504 263 499.611L301.813 499.183V500H301.934H301.882Z" fill="#1B3853"/>
<path id="Corpo_2" opacity="0.1" d="M316.416 375.671C316.416 375.671 365.68 401.168 383.398 398.143L316.416 375.671Z" fill="black"/>
<path id="Corpo_3" opacity="0.1" d="M416.673 365.3C416.673 365.3 464.641 380.857 480.63 383.018C496.619 385.178 416.673 365.3 416.673 365.3Z" fill="black"/>
<path id="Corpo_4" opacity="0.1" d="M469.879 315.24C444.814 319.856 397.624 318.862 377.227 318.162C384.703 291.369 421.159 300.478 421.159 300.478C466.283 291.472 469.74 310.158 469.879 315.24Z" fill="black"/>
<path id="Corpo_5" d="M469.879 313.512C444.814 318.127 397.624 317.133 377.227 316.433C384.703 289.64 421.159 298.75 421.159 298.75C466.283 289.744 469.74 308.43 469.879 313.512Z" fill="#1B3853"/>
<path id="m&#195;&#163;o" d="M602.927 431.634C602.927 431.634 632.451 427.096 633.03 440.061C633.61 453.025 617.974 462.083 617.974 462.083L602.927 431.634Z" fill="#FBBEBE"/>
<path id="cabeca_2" opacity="0.1" d="M454.572 283.953C453.302 284.521 452.004 285.023 450.683 285.457C441.366 288.672 431.971 291.913 422.161 293.089C412.352 294.264 402.058 293.227 393.501 288.335C392.603 287.828 391.737 287.265 390.909 286.65C389.958 267.635 387.667 249.053 387.667 249.053C387.667 249.053 462.861 213.617 454.218 241.707C450.778 253.055 451.945 268.992 454.572 283.953Z" fill="black"/>
<path id="cabeca_3" d="M408.964 165.883C407.73 166.209 406.438 166.241 405.189 165.979C403.941 165.716 402.771 165.165 401.773 164.37L403.571 166.868C402.511 166.99 401.438 166.88 400.426 166.544C399.413 166.208 398.487 165.655 397.711 164.923C397.548 167.159 397.641 169.407 397.987 171.622C395.013 171.765 392.084 170.846 389.725 169.029C389.679 169.808 389.873 170.584 390.281 171.25C390.689 171.916 391.291 172.441 392.007 172.754C389.018 172.397 386.003 173.139 383.522 174.843C381.041 176.546 379.264 179.094 378.524 182.01L383.035 182.425C379.49 183.182 376.307 185.124 374.012 187.931C372.629 189.659 371.575 191.872 372.18 193.981C372.785 196.09 375.706 197.438 377.296 195.934C375.034 198.634 373.39 201.796 372.479 205.199C371.569 208.601 371.413 212.162 372.024 215.631C372.434 217.109 372.569 218.65 372.422 220.177C372.137 221.603 371.238 222.839 370.788 224.231C369.924 226.755 370.745 229.494 371.514 232.009L375.568 245.337C377.037 250.151 378.498 254.974 380.416 259.632C381.775 262.577 382.93 265.612 383.874 268.716C384.963 272.899 385.006 277.48 387.331 281.135C388.924 283.436 391.054 285.314 393.536 286.606C402.084 291.498 412.412 292.535 422.196 291.36C431.98 290.185 441.366 286.944 450.674 283.728C452.742 283.105 454.727 282.235 456.586 281.135C463.025 276.918 464.46 268.292 465.661 260.695C467.001 252.225 468.79 243.772 471.962 235.804C473.846 231.059 476.283 226.245 475.868 221.163C475.341 214.412 470 208.942 468.677 202.304C468.235 200.085 468.255 197.799 468.738 195.588C469.148 194.271 469.378 192.905 469.421 191.526C469.274 188.743 466.992 186.6 464.849 184.811C460.199 180.927 455.399 177.257 450.45 173.8C450.199 172.071 452.55 171.328 453.613 169.962C455.117 168.035 453.561 164.975 451.279 164.076C448.998 163.178 446.439 163.765 444.063 164.362C444.217 163.145 443.975 161.911 443.373 160.843C442.77 159.775 441.838 158.93 440.717 158.434C439.595 157.938 438.344 157.817 437.148 158.089C435.952 158.361 434.876 159.012 434.08 159.945C433.449 158.498 432.44 157.246 431.16 156.322C429.88 155.398 428.375 154.834 426.803 154.69C421.072 154.241 420.96 158.623 417.296 161.034C413.631 163.445 410.606 160.265 407.788 157.949C407.271 159.258 407.107 160.68 407.313 162.073C407.519 163.466 408.089 164.78 408.964 165.883Z" fill="#252333"/>
<path id="la" d="M624.819 457.563C624.819 457.563 624.05 459.395 622.633 462.048C620.489 466.13 617.878 469.95 614.854 473.431L614.621 473.681H613.221L563.317 474.14H562.124L561.977 473.967L552.297 462.48L548.65 458.15L548.503 457.969L548.192 457.606L548.019 457.398L547.794 457.13L517 443.5L519.593 432.696L521.387 418.471L521.5 418.03L524 405.498L526.5 398.5L535 389.5L551.355 363.5L570.94 382.162L584.154 405.498L591.25 418.03H595.14C595.874 418.03 597.56 419.447 599.254 421.081C599.859 421.66 600.464 422.274 600.982 422.81C602.521 424.4 603.739 425.765 603.739 425.765C603.739 425.765 610.04 425.904 611.734 430.865C611.821 431.105 611.894 431.35 611.95 431.599C612.512 433.549 613.244 435.446 614.137 437.269C615.252 439.698 616.652 442.455 618.069 445.212C620.705 450.268 623.385 455.082 624.37 456.828L624.491 457.044L624.819 457.563Z" fill="#1B3853"/>
<path id="Vector_36" opacity="0.1" d="M550.577 418.54L550.491 419.776V419.862L550.344 421.85L549.195 437.848L547.803 457.122L547.406 462.55L546.541 474.166V474.313L454.062 475.177L302.302 476.819V477.545H302.181V476.819V476.577L302.57 464.166L303.313 439.914L303.953 419.352L304.013 417.304C304.051 416.068 304.341 414.852 304.864 413.731C305.387 412.611 306.134 411.608 307.058 410.786C307.981 409.963 309.063 409.337 310.237 408.947C311.41 408.556 312.651 408.409 313.884 408.514C317.963 408.86 323.261 409.283 329.596 409.733L332.189 409.923C368.775 412.464 436.388 415.748 504.615 411.652C506.049 411.574 507.493 411.487 508.936 411.384C519.515 410.718 530.085 409.863 540.552 408.791C541.875 408.652 543.212 408.805 544.47 409.239C545.727 409.674 546.874 410.378 547.83 411.303C548.786 412.229 549.527 413.352 550.002 414.595C550.477 415.838 550.673 417.17 550.577 418.497V418.54Z" fill="black"/>
<path id="Vector_37" d="M302 486.961V486.131L454.204 484.244L546.937 483.256H547.197V483.088L548.064 469.81L548.437 463.883L549.858 441.546L550.976 423.862V423.428C551.028 422.613 550.996 421.794 550.881 420.987C550.886 420.955 550.886 420.921 550.881 420.889C550.643 419.221 550.047 417.647 549.147 416.305C548.193 414.91 546.943 413.815 545.514 413.124C544.086 412.432 542.527 412.167 540.983 412.353C530.488 413.578 519.889 414.556 509.281 415.317C507.833 415.435 506.386 415.534 504.947 415.623C436.533 420.256 368.733 416.502 332.047 413.647L329.447 413.43C323.095 412.916 317.782 412.442 313.691 412.037C311.441 411.82 309.2 412.562 307.401 414.118C305.602 415.674 304.373 417.935 303.95 420.464C303.862 420.999 303.81 421.54 303.794 422.084L303.205 443.976L302.399 471.707L302.017 485.894V486.17V487L302 486.961Z" fill="#3F3D56"/>
<path id="Vector_38" opacity="0.1" d="M550.986 424.941L549.921 439.926L548.337 462.261L547.938 467.852L547.072 480.374L547.02 480.999V481.165L546.891 482.612L546.986 481.165H546.735L454.088 482.143L302 484V483.726L302.424 469.69L303.29 442.262L303.844 424.032C303.872 422.995 304.128 421.982 304.591 421.086C305.054 420.19 305.708 419.438 306.494 418.9C307.474 418.222 308.621 417.914 309.767 418.021C311.585 418.187 313.819 418.382 316.425 418.597C320.659 418.949 325.88 419.36 331.959 419.79C343.215 420.591 357.337 421.452 373.52 422.155C418.544 424.11 479.328 424.765 537.063 419.057C539.661 418.803 542.345 418.519 544.968 418.236C546.007 418.119 547.053 418.343 547.982 418.881C548.245 419.029 548.494 419.206 548.726 419.409C549.48 420.025 550.077 420.854 550.458 421.813C550.546 422.004 550.619 422.204 550.674 422.41C550.934 423.219 551.041 424.082 550.986 424.941V424.941Z" fill="black"/>
<path id="Vector_39" opacity="0.1" d="M257.644 436.431V439.188C257.644 440.19 257.36 441.172 256.825 442.02C256.29 442.868 255.525 443.546 254.619 443.976L219.961 444.641C219.039 444.219 218.259 443.541 217.712 442.687C217.165 441.834 216.874 440.841 216.875 439.827V437.235L257.644 436.431Z" fill="black"/>
<path id="Vector_40" d="M258.077 445.601L212.917 446.465V438.972L258.077 438.107V445.601Z" fill="#3F3D56"/>
<path id="Vector_41" opacity="0.1" d="M258.077 445.601L212.917 446.465V438.972L258.077 438.107V445.601Z" fill="black"/>
<path id="Vector_42" d="M259.805 445.601L214.646 446.465V438.972L259.805 438.107V445.601Z" fill="#3F3D56"/>
<g id="Group" opacity="0.1">
<path id="Vector_43" opacity="0.1" d="M409.318 163.048C408.474 161.951 407.913 160.662 407.684 159.297C407.476 160.632 407.601 161.997 408.048 163.273C408.476 163.233 408.901 163.158 409.318 163.048Z" fill="black"/>
<path id="Vector_44" opacity="0.1" d="M398.342 168.787C398.179 167.727 398.072 166.66 398.022 165.589C398.022 166.652 398.022 167.724 398.022 168.795L398.342 168.787Z" fill="black"/>
<path id="Vector_45" opacity="0.1" d="M468.781 197.628C468.829 196.858 468.933 196.093 469.092 195.338C469.501 194.023 469.734 192.66 469.784 191.284C469.764 190.975 469.718 190.669 469.645 190.368C469.499 191.163 469.265 191.958 469.092 192.745C468.747 194.348 468.642 195.994 468.781 197.628Z" fill="black"/>
<path id="Vector_46" opacity="0.1" d="M450.804 170.922L451.746 171.604C452.54 171.03 453.283 170.388 453.967 169.686C454.292 169.236 454.494 168.709 454.551 168.156C454.609 167.604 454.521 167.047 454.295 166.54C454.209 166.737 454.099 166.923 453.967 167.093C452.904 168.458 450.553 169.21 450.804 170.922Z" fill="black"/>
<path id="Vector_47" opacity="0.1" d="M379.786 179.236C379.47 179.866 379.219 180.526 379.034 181.207C380.386 180.452 381.842 179.901 383.355 179.573L379.786 179.236Z" fill="black"/>
<path id="Vector_48" opacity="0.1" d="M391.704 169.833C391.136 169.52 390.593 169.164 390.079 168.769C390.057 169.111 390.084 169.455 390.157 169.789C390.673 169.765 391.19 169.779 391.704 169.833Z" fill="black"/>
<path id="Vector_49" opacity="0.1" d="M476.205 220.756C475.851 224.948 473.898 228.984 472.316 232.96C469.144 240.929 467.355 249.382 466.015 257.86C464.814 265.457 463.423 274.083 456.94 278.292C455.088 279.398 453.105 280.27 451.037 280.885C441.72 284.109 432.326 287.341 422.516 288.517C412.706 289.692 402.413 288.663 393.856 283.772C391.375 282.477 389.246 280.6 387.65 278.301C385.343 274.645 385.3 270.064 384.193 265.881C383.25 262.775 382.095 259.737 380.736 256.788C378.826 252.139 377.357 247.281 375.896 242.502C374.542 238.059 373.191 233.614 371.843 229.166C371.399 227.828 371.069 226.454 370.857 225.061C370.52 227.273 371.177 229.589 371.843 231.759C373.191 236.213 374.542 240.658 375.896 245.095C377.357 249.909 378.826 254.731 380.736 259.381C382.095 262.33 383.25 265.367 384.193 268.474C385.282 272.657 385.326 277.238 387.65 280.893C389.246 283.193 391.375 285.07 393.856 286.364C402.413 291.256 412.732 292.285 422.516 291.109C432.3 289.934 441.686 286.701 451.037 283.478C453.105 282.862 455.088 281.991 456.94 280.885C463.379 276.676 464.814 268.05 466.015 260.453C467.355 251.974 469.144 243.522 472.316 235.553C474.2 230.817 476.638 226.003 476.223 220.912C476.223 220.86 476.205 220.808 476.205 220.756Z" fill="black"/>
<path id="Vector_50" opacity="0.1" d="M372.759 217.412C372.759 217.412 372.759 217.351 372.759 217.316C372.915 215.792 372.78 214.253 372.361 212.779C372.189 211.831 372.076 210.872 372.024 209.91C371.925 211.737 372.038 213.57 372.361 215.372C372.5 216.046 372.655 216.729 372.759 217.412Z" fill="black"/>
<path id="Vector_51" opacity="0.1" d="M375.395 196.271C376.059 195.154 376.814 194.094 377.65 193.099C376.069 194.612 373.148 193.263 372.534 191.163C372.308 192.013 372.308 192.907 372.534 193.756C372.747 194.39 373.123 194.957 373.626 195.399C374.128 195.84 374.738 196.141 375.395 196.271Z" fill="black"/>
</g>
<path id="Corpo_6" opacity="0.1" d="M591.259 418.021C591.259 418.021 593.999 427.961 591.259 436.604C588.519 445.246 591.259 418.021 591.259 418.021Z" fill="black"/>
<path id="Corpo_7" opacity="0.1" d="M602.927 428.159C602.927 428.159 604.077 440.778 601.484 443.017C598.891 445.255 602.927 428.159 602.927 428.159Z" fill="black"/>
<path id="Vector_52" d="M171.984 296.33L259.805 295.465" stroke="#83BCA9" stroke-width="2" stroke-miterlimit="10"/>
<path id="Vector_53" d="M171.984 307.107L259.805 306.252" stroke="#83BCA9" stroke-width="2" stroke-miterlimit="10"/>
<path id="Vector_54" d="M171.984 317.894L259.805 317.029" stroke="#83BCA9" stroke-width="2" stroke-miterlimit="10"/>
<path id="Vector_55" d="M172 328.864L259.82 328" stroke="#83BCA9" stroke-width="2" stroke-miterlimit="10"/>
<path id="Vector_56" d="M201 341.864L288.82 341" stroke="#83BCA9" stroke-width="2" stroke-miterlimit="10"/>
<path id="Vector_57" d="M201 354.864L288.82 354" stroke="#83BCA9" stroke-width="2" stroke-miterlimit="10"/>
<rect id="Rectangle 12" x="585" y="313" width="19" height="19" fill="#83BCA9"/>
<rect id="Rectangle 13" x="630" y="345" width="30" height="47" fill="#83BCA9"/>
<path id="mouse" d="M597 319V329.5L599.5 327.2L601.5 331.5L603 330.8L601 326.5L604 326L597 319Z" fill="white" stroke="black" stroke-width="0.5"/>
</g>
<defs>
<clipPath id="clip0">
<rect width="900" height="478.962" fill="white"/>
</clipPath>
</defs>
</svg>
